<?xml version="1.0" encoding="UTF-8" standalone="no"?>
<!-- Created with Inkscape (http://www.inkscape.org/) -->
<svg
   xmlns:svg="http://www.w3.org/2000/svg"
   xmlns="http://www.w3.org/2000/svg"
   version="1.0"
   width="351.66501"
   height="330.71899"
   viewBox="0 0 351.665 330.719"
   id="Biohazard"
   xml:space="preserve"><defs
   id="defs20" />

<g
   id="g5">
	<path
   d="M 170.874,149.947 L 170.874,165.259 C 156.728,168.197 149.999,180.884 154.062,194.947 L 141.062,202.572 C 85.374,127.489 -22.793,188.155 9.04,273.989 C -20.627,205.322 27.54,141.322 83.623,134.572 C 61.707,75.988 97.04,8.154 164.686,0.885 C 77.374,16.488 78.207,139.321 170.874,149.947 z"
   id="path7" />
	<path
   d="M 145.053,210.441 L 158.314,202.785 C 167.931,213.568 182.284,213.051 192.43,202.502 L 205.534,209.947 C 168.353,295.716 274.975,359.058 333.393,288.572 C 288.759,348.597 209.25,338.884 175.363,293.689 C 135.586,341.962 59.174,345.28 19.055,290.332 C 76.223,358.145 182.184,296.007 145.053,210.441 z"
   id="path9" />
	<path
   d="M 210.76,202.173 L 197.498,194.517 C 202.027,180.797 194.404,168.626 180.195,165.114 L 180.091,150.043 C 272.96,139.357 274.504,15.349 184.253,0 C 258.554,8.642 289.896,82.355 267.699,134.3 C 329.393,144.612 370.472,209.127 342.945,271.346 C 373.089,187.93 266.296,127.235 210.76,202.173 z"
   id="path11" />
	<path
   d="M 120.249,112.885 L 136.999,129.823 C 159.937,112.323 194.687,116.073 214.187,129.385 L 230.062,112.885 C 199.624,88.156 153.29,88.156 120.249,112.885 z"
   id="path13" />
	<path
   d="M 268.161,177.752 L 245.118,183.79 C 248.805,212.404 228.182,240.623 206.903,250.855 L 213.255,272.853 C 249.889,258.857 273.056,218.732 268.161,177.752 z"
   id="path15" />
	<path
   d="M 138.18,272.603 L 144.473,249.627 C 117.849,238.514 103.722,206.544 105.5,183 L 83.273,177.502 C 77.077,216.226 100.244,256.352 138.18,272.603 z"
   id="path17" />
</g>
</svg>