<?xml version="1.0" encoding="utf-8" ?>
<svg baseProfile="full" height="1700" version="1.1" width="1700" xmlns="http://www.w3.org/2000/svg" xmlns:ev="http://www.w3.org/2001/xml-events" xmlns:xlink="http://www.w3.org/1999/xlink"><defs /><text fill="black" x="238.15" y="633.34">12</text><circle cx="238.15" cy="633.34" fill="blue" r="3" /><text fill="black" x="1027.0" y="1626.4">4</text><circle cx="1027.0" cy="1626.4" fill="blue" r="3" /><text fill="black" x="1307.8" y="896.11">20</text><circle cx="1307.8" cy="896.11" fill="blue" r="3" /><text fill="black" x="1304.4" y="1594.7">2</text><circle cx="1304.4" cy="1594.7" fill="blue" r="3" /><text fill="black" x="883.6" y="1594.7">5</text><circle cx="883.6" cy="1594.7" fill="blue" r="3" /><text fill="black" x="343.91" y="1454.3">9</text><circle cx="343.91" cy="1454.3" fill="blue" r="3" /><text fill="black" x="1488.8" y="586.09">19</text><circle cx="1488.8" cy="586.09" fill="blue" r="3" /><text fill="black" x="1503.7" y="1302.5">0</text><circle cx="1503.7" cy="1302.5" fill="blue" r="3" /><text fill="black" x="1182.0" y="424.56">18</text><circle cx="1182.0" cy="424.56" fill="blue" r="3" /><text fill="black" x="461.26" y="1594.7">8</text><circle cx="461.26" cy="1594.7" fill="blue" r="3" /><text fill="black" x="1420.1" y="1153.8">21</text><circle cx="1420.1" cy="1153.8" fill="blue" r="3" /><text fill="black" x="739.47" y="463.71">15</text><circle cx="739.47" cy="463.71" fill="blue" r="3" /><text fill="black" x="943.9" y="163.06">28</text><circle cx="943.9" cy="163.06" fill="blue" r="3" /><text fill="black" x="585.18" y="427.8">14</text><circle cx="585.18" cy="427.8" fill="blue" r="3" /><text fill="black" x="1416.6" y="1459.1">1</text><circle cx="1416.6" cy="1459.1" fill="blue" r="3" /><text fill="black" x="851.79" y="422.84">26</text><circle cx="851.79" cy="422.84" fill="blue" r="3" /><text fill="black" x="167.7" y="914.02">11</text><circle cx="167.7" cy="914.02" fill="blue" r="3" /><text fill="black" x="1532.3" y="1227.4">22</text><circle cx="1532.3" cy="1227.4" fill="blue" r="3" /><text fill="black" x="1189.4" y="39.99">30</text><circle cx="1189.4" cy="39.99" fill="blue" r="3" /><text fill="black" x="997.55" y="457.31">17</text><circle cx="997.55" cy="457.31" fill="blue" r="3" /><text fill="black" x="1191.1" y="72.399">31</text><circle cx="1191.1" cy="72.399" fill="blue" r="3" /><text fill="black" x="385.7" y="484.09">13</text><circle cx="385.7" cy="484.09" fill="blue" r="3" /><text fill="black" x="1058.4" y="77.09">29</text><circle cx="1058.4" cy="77.09" fill="blue" r="3" /><text fill="black" x="849.91" y="392.14">27</text><circle cx="849.91" cy="392.14" fill="blue" r="3" /><text fill="black" x="736.14" y="1626.4">6</text><circle cx="736.14" cy="1626.4" fill="blue" r="3" /><text fill="black" x="1191.1" y="72.4">24</text><circle cx="1191.1" cy="72.4" fill="blue" r="3" /><text fill="black" x="861.85" y="499.7">16</text><circle cx="861.85" cy="499.7" fill="blue" r="3" /><text fill="black" x="1102.5" y="299.09">25</text><circle cx="1102.5" cy="299.09" fill="blue" r="3" /><text fill="black" x="1503.7" y="1302.5">23</text><circle cx="1503.7" cy="1302.5" fill="blue" r="3" /><text fill="black" x="608.72" y="1659.9">7</text><circle cx="608.72" cy="1659.9" fill="blue" r="3" /><text fill="black" x="1160.2" y="1658.2">3</text><circle cx="1160.2" cy="1658.2" fill="blue" r="3" /><text fill="black" x="219.81" y="1207.8">10</text><circle cx="219.81" cy="1207.8" fill="blue" r="3" /></svg>