<?xml version="1.0" encoding="utf-8" ?>
<svg baseProfile="full" height="1700" version="1.1" width="1700" xmlns="http://www.w3.org/2000/svg" xmlns:ev="http://www.w3.org/2001/xml-events" xmlns:xlink="http://www.w3.org/1999/xlink"><defs /><text fill="black" x="426" y="438">1</text><circle cx="423" cy="435" fill="blue" r="3" /><text fill="black" x="309" y="489">4</text><circle cx="306" cy="486" fill="blue" r="3" /><text fill="black" x="285" y="51">27</text><circle cx="282" cy="48" fill="blue" r="3" /><text fill="black" x="351" y="498">3</text><circle cx="348" cy="495" fill="blue" r="3" /><text fill="black" x="318" y="24">28</text><circle cx="315" cy="21" fill="blue" r="3" /><text fill="black" x="357" y="12">29</text><circle cx="354" cy="9" fill="blue" r="3" /><text fill="black" x="453" y="393">0</text><circle cx="450" cy="390" fill="blue" r="3" /><text fill="black" x="222" y="141">15</text><circle cx="219" cy="138" fill="blue" r="3" /><text fill="black" x="72" y="192">12</text><circle cx="69" cy="189" fill="blue" r="3" /><text fill="black" x="261" y="150">16</text><circle cx="258" cy="147" fill="blue" r="3" /><text fill="black" x="393" y="480">2</text><circle cx="390" cy="477" fill="blue" r="3" /><text fill="black" x="51" y="276">11</text><circle cx="48" cy="273" fill="blue" r="3" /><text fill="black" x="267" y="480">5</text><circle cx="264" cy="477" fill="blue" r="3" /><text fill="black" x="393" y="270">20</text><circle cx="390" cy="267" fill="blue" r="3" /><text fill="black" x="177" y="129">14</text><circle cx="174" cy="126" fill="blue" r="3" /><text fill="black" x="117" y="147">13</text><circle cx="114" cy="144" fill="blue" r="3" /><text fill="black" x="333" y="90">24</text><circle cx="330" cy="87" fill="blue" r="3" /><text fill="black" x="447" y="177">19</text><circle cx="444" cy="174" fill="blue" r="3" /><text fill="black" x="141" y="480">8</text><circle cx="138" cy="477" fill="blue" r="3" /><text fill="black" x="300" y="138">17</text><circle cx="297" cy="135" fill="blue" r="3" /><text fill="black" x="222" y="489">6</text><circle cx="219" cy="486" fill="blue" r="3" /><text fill="black" x="462" y="369">22</text><circle cx="459" cy="366" fill="blue" r="3" /><text fill="black" x="258" y="129">25</text><circle cx="255" cy="126" fill="blue" r="3" /><text fill="black" x="66" y="363">10</text><circle cx="63" cy="360" fill="blue" r="3" /><text fill="black" x="183" y="498">7</text><circle cx="180" cy="495" fill="blue" r="3" /><text fill="black" x="429" y="348">21</text><circle cx="426" cy="345" fill="blue" r="3" /><text fill="black" x="255" y="120">26</text><circle cx="252" cy="117" fill="blue" r="3" /><text fill="black" x="357" y="129">18</text><circle cx="354" cy="126" fill="blue" r="3" /><text fill="black" x="360" y="24">23</text><circle cx="357" cy="21" fill="blue" r="3" /><text fill="black" x="105" y="438">9</text><circle cx="102" cy="435" fill="blue" r="3" /></svg>