<?xml version="1.0" encoding="utf-8" ?>
<svg baseProfile="full" height="1700" version="1.1" width="1700" xmlns="http://www.w3.org/2000/svg" xmlns:ev="http://www.w3.org/2001/xml-events" xmlns:xlink="http://www.w3.org/1999/xlink"><defs /><text fill="black" x="252" y="534">32</text><circle cx="249" cy="531" fill="blue" r="3" /><text fill="black" x="252" y="405">5</text><circle cx="249" cy="402" fill="blue" r="3" /><text fill="black" x="738" y="552">26</text><circle cx="735" cy="549" fill="blue" r="3" /><text fill="black" x="1029" y="816">20</text><circle cx="1026" cy="813" fill="blue" r="3" /><text fill="black" x="618" y="630">10</text><circle cx="615" cy="627" fill="blue" r="3" /><text fill="black" x="477" y="609">8</text><circle cx="474" cy="606" fill="blue" r="3" /><text fill="black" x="579" y="609">9</text><circle cx="576" cy="606" fill="blue" r="3" /><text fill="black" x="426" y="609">3</text><circle cx="423" cy="606" fill="blue" r="3" /><text fill="black" x="438" y="633">7</text><circle cx="435" cy="630" fill="blue" r="3" /><text fill="black" x="411" y="390">22</text><circle cx="408" cy="387" fill="blue" r="3" /><text fill="black" x="363" y="339">21</text><circle cx="360" cy="336" fill="blue" r="3" /><text fill="black" x="318" y="552">31</text><circle cx="315" cy="549" fill="blue" r="3" /><text fill="black" x="513" y="450">0</text><circle cx="510" cy="447" fill="blue" r="3" /><text fill="black" x="30" y="822">4</text><circle cx="27" cy="819" fill="blue" r="3" /><text fill="black" x="645" y="390">23</text><circle cx="642" cy="387" fill="blue" r="3" /><text fill="black" x="555" y="3">18</text><circle cx="552" cy="0" fill="blue" r="3" /><text fill="black" x="693" y="339">24</text><circle cx="690" cy="336" fill="blue" r="3" /><text fill="black" x="495" y="3">6</text><circle cx="492" cy="0" fill="blue" r="3" /><text fill="black" x="435" y="750">30</text><circle cx="432" cy="747" fill="blue" r="3" /><text fill="black" x="465" y="585">2</text><circle cx="462" cy="582" fill="blue" r="3" /><text fill="black" x="807" y="534">25</text><circle cx="804" cy="531" fill="blue" r="3" /><text fill="black" x="642" y="819">28</text><circle cx="639" cy="816" fill="blue" r="3" /><text fill="black" x="543" y="498">16</text><circle cx="540" cy="495" fill="blue" r="3" /><text fill="black" x="528" y="882">12</text><circle cx="525" cy="879" fill="blue" r="3" /><text fill="black" x="1002" y="867">11</text><circle cx="999" cy="864" fill="blue" r="3" /><text fill="black" x="633" y="609">14</text><circle cx="630" cy="606" fill="blue" r="3" /><text fill="black" x="513" y="498">1</text><circle cx="510" cy="495" fill="blue" r="3" /><text fill="black" x="543" y="453">17</text><circle cx="540" cy="450" fill="blue" r="3" /><text fill="black" x="417" y="819">29</text><circle cx="414" cy="816" fill="blue" r="3" /><text fill="black" x="60" y="873">13</text><circle cx="57" cy="870" fill="blue" r="3" /><text fill="black" x="621" y="753">27</text><circle cx="618" cy="750" fill="blue" r="3" /><text fill="black" x="594" y="585">15</text><circle cx="591" cy="582" fill="blue" r="3" /><text fill="black" x="804" y="405">19</text><circle cx="801" cy="402" fill="blue" r="3" /></svg>