<?xml version="1.0" encoding="utf-8" ?>
<svg baseProfile="full" height="1700" version="1.1" width="1700" xmlns="http://www.w3.org/2000/svg" xmlns:ev="http://www.w3.org/2001/xml-events" xmlns:xlink="http://www.w3.org/1999/xlink"><defs /><line stroke="rgb(10%,10%,16%)" x1="150" x2="118" y1="130" y2="3" /><line stroke="rgb(10%,10%,16%)" x1="150" x2="141" y1="130" y2="145" /><line stroke="rgb(10%,10%,16%)" x1="141" x2="130" y1="145" y2="159" /><line stroke="rgb(10%,10%,16%)" x1="130" x2="116" y1="159" y2="165" /><line stroke="rgb(10%,10%,16%)" x1="116" x2="102" y1="165" y2="162" /><line stroke="rgb(10%,10%,16%)" x1="102" x2="88" y1="162" y2="159" /><line stroke="rgb(10%,10%,16%)" x1="88" x2="73" y1="159" y2="162" /><line stroke="rgb(10%,10%,16%)" x1="73" x2="60" y1="162" y2="165" /><line stroke="rgb(10%,10%,16%)" x1="60" x2="46" y1="165" y2="159" /><line stroke="rgb(10%,10%,16%)" x1="46" x2="34" y1="159" y2="145" /><line stroke="rgb(10%,10%,16%)" x1="34" x2="21" y1="145" y2="120" /><line stroke="rgb(10%,10%,16%)" x1="21" x2="16" y1="120" y2="91" /><line stroke="rgb(10%,10%,16%)" x1="16" x2="23" y1="91" y2="63" /><line stroke="rgb(10%,10%,16%)" x1="23" x2="38" y1="63" y2="48" /><line stroke="rgb(10%,10%,16%)" x1="38" x2="58" y1="48" y2="42" /><line stroke="rgb(10%,10%,16%)" x1="58" x2="73" y1="42" y2="46" /><line stroke="rgb(10%,10%,16%)" x1="73" x2="86" y1="46" y2="49" /><line stroke="rgb(10%,10%,16%)" x1="86" x2="99" y1="49" y2="45" /><line stroke="rgb(10%,10%,16%)" x1="99" x2="118" y1="45" y2="42" /><line stroke="rgb(10%,10%,16%)" x1="118" x2="148" y1="42" y2="58" /><line stroke="rgb(10%,10%,16%)" x1="148" x2="130" y1="58" y2="89" /><line stroke="rgb(10%,10%,16%)" x1="130" x2="142" y1="89" y2="115" /><line stroke="rgb(10%,10%,16%)" x1="142" x2="153" y1="115" y2="122" /><line stroke="rgb(10%,10%,16%)" x1="153" x2="119" y1="122" y2="7" /><line stroke="rgb(10%,10%,16%)" x1="119" x2="110" y1="7" y2="29" /><line stroke="rgb(10%,10%,16%)" x1="110" x2="85" y1="29" y2="42" /><line stroke="rgb(10%,10%,16%)" x1="85" x2="84" y1="42" y2="39" /><line stroke="rgb(10%,10%,16%)" x1="84" x2="94" y1="39" y2="16" /><line stroke="rgb(10%,10%,16%)" x1="94" x2="105" y1="16" y2="7" /><line stroke="rgb(10%,10%,16%)" x1="105" x2="118" y1="7" y2="3" /></svg>