<?xml version="1.0" encoding="utf-8" ?>
<svg baseProfile="full" height="1700" version="1.1" width="1700" xmlns="http://www.w3.org/2000/svg" xmlns:ev="http://www.w3.org/2001/xml-events" xmlns:xlink="http://www.w3.org/1999/xlink"><defs /><line stroke="rgb(10%,10%,16%)" x1="170" x2="83" y1="149" y2="177" /><line stroke="rgb(10%,10%,16%)" x1="170" x2="170" y1="149" y2="165" /><line stroke="rgb(10%,10%,16%)" x1="170" x2="154" y1="165" y2="194" /><line stroke="rgb(10%,10%,16%)" x1="154" x2="141" y1="194" y2="202" /><line stroke="rgb(10%,10%,16%)" x1="141" x2="9" y1="202" y2="273" /><line stroke="rgb(10%,10%,16%)" x1="9" x2="83" y1="273" y2="134" /><line stroke="rgb(10%,10%,16%)" x1="83" x2="164" y1="134" y2="0" /><line stroke="rgb(10%,10%,16%)" x1="164" x2="145" y1="0" y2="210" /><line stroke="rgb(10%,10%,16%)" x1="145" x2="158" y1="210" y2="202" /><line stroke="rgb(10%,10%,16%)" x1="158" x2="192" y1="202" y2="202" /><line stroke="rgb(10%,10%,16%)" x1="192" x2="205" y1="202" y2="209" /><line stroke="rgb(10%,10%,16%)" x1="205" x2="333" y1="209" y2="288" /><line stroke="rgb(10%,10%,16%)" x1="333" x2="175" y1="288" y2="293" /><line stroke="rgb(10%,10%,16%)" x1="175" x2="19" y1="293" y2="290" /><line stroke="rgb(10%,10%,16%)" x1="19" x2="210" y1="290" y2="202" /><line stroke="rgb(10%,10%,16%)" x1="210" x2="197" y1="202" y2="194" /><line stroke="rgb(10%,10%,16%)" x1="197" x2="180" y1="194" y2="165" /><line stroke="rgb(10%,10%,16%)" x1="180" x2="180" y1="165" y2="150" /><line stroke="rgb(10%,10%,16%)" x1="180" x2="184" y1="150" y2="0" /><line stroke="rgb(10%,10%,16%)" x1="184" x2="267" y1="0" y2="134" /><line stroke="rgb(10%,10%,16%)" x1="267" x2="342" y1="134" y2="271" /><line stroke="rgb(10%,10%,16%)" x1="342" x2="120" y1="271" y2="112" /><line stroke="rgb(10%,10%,16%)" x1="120" x2="136" y1="112" y2="129" /><line stroke="rgb(10%,10%,16%)" x1="136" x2="214" y1="129" y2="129" /><line stroke="rgb(10%,10%,16%)" x1="214" x2="230" y1="129" y2="112" /><line stroke="rgb(10%,10%,16%)" x1="230" x2="268" y1="112" y2="177" /><line stroke="rgb(10%,10%,16%)" x1="268" x2="245" y1="177" y2="183" /><line stroke="rgb(10%,10%,16%)" x1="245" x2="206" y1="183" y2="250" /><line stroke="rgb(10%,10%,16%)" x1="206" x2="213" y1="250" y2="272" /><line stroke="rgb(10%,10%,16%)" x1="213" x2="138" y1="272" y2="272" /><line stroke="rgb(10%,10%,16%)" x1="138" x2="144" y1="272" y2="249" /><line stroke="rgb(10%,10%,16%)" x1="144" x2="105" y1="249" y2="183" /><line stroke="rgb(10%,10%,16%)" x1="105" x2="83" y1="183" y2="177" /></svg>