<?xml version="1.0" ?>
<svg baseProfile="full" height="294px" version="1.1" viewBox="-172.261138858 38.017752263 751.31144922 367.90650807" width="600px" xmlns="http://www.w3.org/2000/svg" xmlns:ev="http://www.w3.org/2001/xml-events" xmlns:xlink="http://www.w3.org/1999/xlink">
	<defs/>
	<path d="M 137.57703,281.0191 C 139.17632,280.35615 140.97523,280.23549 142.67777,280.54947 C 144.3803,280.86345 145.98918,281.59895 147.42119,282.57186 C 150.28521,284.51769 152.4094,287.3496 154.44382,290.15138 C 159.11571,296.58544 163.6125,303.15365 167.6887,309.98068 C 170.99505,315.51834 174.03222,321.23753 177.85285,326.43372 C 180.34683,329.82562 183.15945,332.97319 185.66585,336.35593 C 188.17224,339.73866 190.39379,343.41179 191.50516,347.47255 C 192.94927,352.74908 192.38979,358.56546 189.8785,363.42557 C 188.11187,366.84453 185.40204,369.77785 182.10608,371.76455 C 178.81013,373.75125 174.93544,374.77899 171.08973,374.63476 C 164.9756,374.40546 159.39029,371.34961 153.70611,369.0857 C 142.12514,364.4732 129.54633,363.0263 117.60945,359.43396 C 113.94086,358.32992 110.33363,357.02326 106.63957,356.00767 C 104.99832,355.55645 103.33091,355.15947 101.78082,354.45623 C 100.23074,353.75298 98.781272,352.70713 97.91911,351.23948 C 97.252719,350.10509 96.970724,348.76946 96.988923,347.45394 C 97.007123,346.13842 97.314812,344.83941 97.762738,343.60236 C 98.658589,341.12827 100.106,338.88862 101.0829,336.4454 C 102.67801,332.45605 102.96459,328.05701 102.74947,323.76598 C 102.53436,319.47495 101.83869,315.2212 101.54493,310.93483 C 101.41375,309.02077 101.36427,307.08227 101.72972,305.19885 C 102.09517,303.31542 102.90549,301.47426 104.28743,300.14344 C 105.56149,298.91651 107.25235,298.18813 108.98386,297.82693 C 110.71537,297.46573 112.49919,297.44946 114.26753,297.48931 C 116.03586,297.52921 117.8082,297.62356 119.57104,297.47871 C 121.33388,297.33383 123.10451,296.93816 124.64015,296.06043 C 126.10011,295.22596 127.29448,293.98593 128.28389,292.62619 C 129.27329,291.26645 130.07298,289.78046 130.8928,288.31223 C 131.71263,286.844 132.56114,285.38072 133.63437,284.08612 C 134.70761,282.79152 136.0236,281.66308 137.57703,281.01914" id="path14188-1" style="fill:#402c07;fill-opacity:1;stroke:none"/>
	<path d="M 248.06066,184.61218 C 245.45975,188.05188 242.82728,191.46773 240.16371,194.85914 C 237.3307,198.46629 234.46255,202.04574 231.57642,205.61053 C 228.03507,209.9846 224.42487,214.40339 222.1273,219.54098 C 220.15323,223.9552 219.21716,228.74846 217.86232,233.3903 C 216.3237,238.66183 214.23605,243.76053 211.89161,248.72642 C 209.72681,253.31181 207.34183,257.78935 204.9527,262.26195 C 203.21447,265.51602 201.44755,268.84299 200.84488,272.48266 C 200.36861,275.35898 200.64639,278.32689 201.37864,281.14892 C 202.11088,283.97094 203.28828,286.65952 204.61639,289.25493 C 210.28363,300.32997 218.78642,309.87661 228.85815,317.17965 C 233.42878,320.49383 238.32484,323.36074 243.4606,325.7056 C 246.24307,326.97601 249.17415,328.10996 252.23246,328.16304 C 253.76161,328.18954 255.30656,327.9376 256.7068,327.32249 C 258.10704,326.70739 259.35748,325.71876 260.18934,324.4354 C 261.21212,322.8575 261.55926,320.89711 261.35395,319.02797 C 261.14865,317.15883 260.41911,315.37503 259.44071,313.76924 C 257.05074,309.84673 253.27551,307.00869 249.64429,304.19581 C 241.80374,298.12223 234.21963,291.71543 226.96217,284.95585 C 224.91306,283.04731 222.86377,281.07826 221.43198,278.67173 C 220.03768,276.32821 219.28435,273.65798 218.77415,270.9792 C 217.37452,263.63048 217.73375,255.8965 220.23373,248.84577 C 221.21175,246.08743 222.50439,243.45352 223.75188,240.80612 C 225.91408,236.21757 227.96321,231.54313 230.80121,227.33889 C 234.33389,222.10555 239.04605,217.66614 241.95268,212.06086 C 244.40725,207.32736 245.44621,202.00344 246.31453,196.74255 C 246.97984,192.71166 247.56204,188.66706 248.06066,184.61218" id="path15033-2" style="fill:none;stroke:#729fcf;stroke-width:0.125;stroke-linecap:butt;stroke-linejoin:miter;stroke-miterlimit:4;stroke-opacity:1;stroke-dasharray:none"/>
	<path d="M 386.1875,285.32775 C 385.78234,284.22406 385.06905,283.24619 384.1968,282.45788 C 383.32454,281.66956 382.29631,281.06559 381.21402,280.60633 C 379.04943,279.68781 376.69349,279.34484 374.3825,278.91077 C 372.20331,278.50146 370.04071,278.00446 367.85468,277.63343 C 365.58332,277.24792 363.23678,277.0013 360.98938,277.50813 C 359.02355,277.95146 357.20488,278.96692 355.71766,280.32677 C 354.23043,281.68661 353.06855,283.38317 352.23267,285.21684 C 350.76049,288.44636 350.29816,292.08187 350.57873,295.62 C 350.78755,298.25325 351.45405,300.96594 353.1875,302.95912 C 354.58815,304.56964 356.57483,305.57438 358.62148,306.18004 C 362.1465,307.2232 365.98811,307.16826 369.48186,306.02474 C 375.24875,304.09361 380.35754,300.25087 383.8122,295.24571 C 384.95081,293.59608 385.92437,291.79762 386.3654,289.84231 C 386.70137,288.35276 386.71371,286.76119 386.1875,285.32775" id="path14824-1" style="fill:none;stroke:#ce5c00;stroke-width:1px;stroke-linecap:butt;stroke-linejoin:miter;stroke-opacity:1"/>
	<path d="M 386.1875,285.32775 C 385.78234,284.22406 385.06905,283.24619 384.1968,282.45788 C 383.32454,281.66956 382.29631,281.06559 381.21402,280.60633 C 379.04943,279.68781 376.69349,279.34484 374.3825,278.91077 C 372.20331,278.50146 370.04071,278.00446 367.85468,277.63343 C 365.58332,277.24792 363.23678,277.0013 360.98938,277.50813 C 359.02355,277.95146 357.20488,278.96692 355.71766,280.32677 C 354.23043,281.68661 353.06855,283.38317 352.23267,285.21684 C 350.76049,288.44636 350.29816,292.08187 350.57873,295.62 C 350.78755,298.25325 351.45405,300.96594 353.1875,302.95912 C 354.58815,304.56964 356.57483,305.57438 358.62148,306.18004 C 362.1465,307.2232 365.98811,307.16826 369.48186,306.02474 C 375.24875,304.09361 380.35754,300.25087 383.8122,295.24571 C 384.95081,293.59608 385.92437,291.79762 386.3654,289.84231 C 386.70137,288.35276 386.71371,286.76119 386.1875,285.32775" id="path14824-6-5" style="fill:none;stroke:#ce5c00;stroke-width:1px;stroke-linecap:butt;stroke-linejoin:miter;stroke-opacity:1"/>
	<path d="M 516.00562,331.8756 C 515.33422,333.59465 514.3788,335.20239 513.18983,336.61386 C 510.56603,339.72868 506.92183,341.78425 503.29335,343.63371 C 497.10475,346.78808 490.69166,349.55548 484.87371,353.35025 C 480.97569,355.89274 477.37781,358.87696 474.01355,362.09263 C 471.13636,364.84275 468.40773,367.78008 465.18108,370.11034 C 461.92541,372.46156 458.16193,374.1646 454.19047,374.76054 C 449.36021,375.48535 444.36913,374.54765 439.89149,372.59638 C 436.75395,371.2291 433.7358,369.27348 431.92848,366.36707 C 430.11423,363.44953 429.70041,359.87894 429.69582,356.44332 C 429.68782,350.36666 430.81406,344.35328 431.8743,338.36983 C 432.75527,333.39806 433.59379,328.415 434.13443,323.39481 C 435.1178,314.26363 435.11073,305.04203 434.45433,295.88154 C 434.3444,294.34738 434.21679,292.79834 434.44633,291.27742 C 434.67555,289.7565 435.30108,288.24072 436.46702,287.23756 C 437.54398,286.31096 438.98795,285.90158 440.40649,285.82306 C 441.82503,285.74456 443.24053,285.96961 444.64631,286.17503 C 447.95885,286.65908 451.2979,287.03993 454.53548,287.89159 C 456.57832,288.42897 458.56863,289.15084 460.60768,289.7024 C 464.01026,290.62279 467.57407,291.06384 471.07507,290.65432 C 474.84424,290.21343 478.50494,288.79754 482.2987,288.88958 C 483.85528,288.92738 485.4002,289.22129 486.88519,289.68943 C 488.40058,290.16715 489.89433,290.85125 491.008,291.98455 C 491.85439,292.84585 492.44379,293.92994 492.88672,295.05334 C 493.54654,296.72686 493.90164,298.51034 494.05375,300.30279 C 494.1885,301.89067 494.16718,303.4972 494.46808,305.06212 C 494.96311,307.6367 496.31554,309.98517 497.99656,311.99706 C 499.67758,314.00895 501.68638,315.71754 503.69297,317.40489 C 505.69205,319.08592 507.70357,320.75958 509.86005,322.23328 C 510.87215,322.92493 511.91647,323.57277 512.87741,324.3339 C 513.83835,325.09503 514.72207,325.9807 515.32284,327.04925 C 516.13776,328.49869 516.38661,330.25695 516.00591,331.8756 L 516.00593,331.8756" id="path14491-6" style="fill:url(#linearGradient14493);fill-opacity:1;stroke:none"/>
	<path d="M 516.00562,331.8756 C 515.33422,333.59465 514.3788,335.20239 513.18983,336.61386 C 510.56603,339.72868 506.92183,341.78425 503.29335,343.63371 C 497.10475,346.78808 490.69166,349.55548 484.87371,353.35025 C 480.97569,355.89274 477.37781,358.87696 474.01355,362.09263 C 471.13636,364.84275 468.40773,367.78008 465.18108,370.11034 C 461.92541,372.46156 458.16193,374.1646 454.19047,374.76054 C 449.36021,375.48535 444.36913,374.54765 439.89149,372.59638 C 436.75395,371.2291 433.7358,369.27348 431.92848,366.36707 C 430.11423,363.44953 429.70041,359.87894 429.69582,356.44332 C 429.68782,350.36666 430.81406,344.35328 431.8743,338.36983 C 432.75527,333.39806 433.59379,328.415 434.13443,323.39481 C 435.1178,314.26363 435.11073,305.04203 434.45433,295.88154 C 434.3444,294.34738 434.21679,292.79834 434.44633,291.27742 C 434.67555,289.7565 435.30108,288.24072 436.46702,287.23756 C 437.54398,286.31096 438.98795,285.90158 440.40649,285.82306 C 441.82503,285.74456 443.24053,285.96961 444.64631,286.17503 C 447.95885,286.65908 451.2979,287.03993 454.53548,287.89159 C 456.57832,288.42897 458.56863,289.15084 460.60768,289.7024 C 464.01026,290.62279 467.57407,291.06384 471.07507,290.65432 C 474.84424,290.21343 478.50494,288.79754 482.2987,288.88958 C 483.85528,288.92738 485.4002,289.22129 486.88519,289.68943 C 488.40058,290.16715 489.89433,290.85125 491.008,291.98455 C 491.85439,292.84585 492.44379,293.92994 492.88672,295.05334 C 493.54654,296.72686 493.90164,298.51034 494.05375,300.30279 C 494.1885,301.89067 494.16718,303.4972 494.46808,305.06212 C 494.96311,307.6367 496.31554,309.98517 497.99656,311.99706 C 499.67758,314.00895 501.68638,315.71754 503.69297,317.40489 C 505.69205,319.08592 507.70357,320.75958 509.86005,322.23328 C 510.87215,322.92493 511.91647,323.57277 512.87741,324.3339 C 513.83835,325.09503 514.72207,325.9807 515.32284,327.04925 C 516.13776,328.49869 516.38661,330.25695 516.00591,331.8756 L 516.00593,331.8756" id="path14483-3" style="fill:url(#linearGradient14485);fill-opacity:1;stroke:none"/>
	<path d="M 511.82669,331.89986 C 511.22052,333.30344 510.38491,334.60762 509.36312,335.7449 C 507.03788,338.33295 503.85606,339.96736 500.70457,341.44142 C 495.28412,343.97676 489.70386,346.22022 484.58901,349.32627 C 481.206,351.38064 478.05205,353.79848 475.08732,356.42061 C 472.56271,358.65347 470.15755,361.04771 467.35969,362.92688 C 464.47656,364.86332 461.18435,366.22576 457.74387,366.70046 C 453.5257,367.28247 449.19052,366.51711 445.23352,364.94427 C 442.52442,363.86745 439.86727,362.32577 438.26659,359.88926 C 436.72846,357.54796 436.33329,354.63753 436.31321,351.83626 C 436.27781,346.89767 437.27822,342.0181 438.21919,337.16985 C 439.00134,333.1399 439.74601,329.09815 440.1966,325.01781 C 441.01444,317.61174 440.85774,310.13245 440.47649,302.69113 C 440.41249,301.44207 440.34288,300.18063 440.55539,298.94812 C 440.76795,297.71561 441.29185,296.49565 442.2371,295.67665 C 443.17624,294.86295 444.44662,294.51723 445.68814,294.46515 C 446.92966,294.41305 448.16456,294.62896 449.39326,294.81442 C 452.28295,295.25059 455.20413,295.52352 458.04541,296.20739 C 459.83192,296.63739 461.57632,297.2275 463.35806,297.67684 C 466.34438,298.42996 469.45451,298.78393 472.5161,298.44931 C 475.8102,298.08927 479.02298,296.93974 482.33579,297.01724 C 483.69417,297.04904 485.04334,297.28866 486.34856,297.66631 C 487.66121,298.04611 488.966,298.58651 489.95566,299.52877 C 490.68101,300.21938 491.20572,301.09813 491.59937,302.01906 C 492.17562,303.3672 492.48563,304.819 492.62042,306.27892 C 492.73939,307.56747 492.7251,308.87297 492.98293,310.14106 C 493.41983,312.28984 494.62259,314.22245 496.09799,315.84459 C 497.57339,317.46673 499.32205,318.81211 501.05389,320.15706 C 502.81023,321.52104 504.56364,322.89686 506.44954,324.07524 C 507.33182,324.62652 508.24303,325.13456 509.08427,325.74666 C 509.9255,326.35875 510.70305,327.08573 511.229,327.98334 C 511.91286,329.15045 512.13129,330.58191 511.82663,331.89986 L 511.82665,331.89986" id="path14475-9" style="fill:url(#linearGradient14477);fill-opacity:1;stroke:none"/>
	<path d="M 304.84727,225.44951 C 310.86354,230.37289 314.62434,237.76651 315.79046,245.45256 C 317.61586,257.48404 313.4441,269.52744 309.34455,280.98529 C 308.52706,283.2701 307.70477,285.57562 307.37982,287.98042 C 307.05487,290.38522 307.26085,292.92867 308.4093,295.06636 C 309.71209,297.49133 312.14157,299.19105 314.77607,299.98928 C 317.36484,300.77366 320.16972,300.75031 322.79073,300.08148 C 325.41174,299.41266 327.8517,298.11374 329.97789,296.44152 C 335.45791,292.13155 338.73588,285.456 339.98832,278.59758 C 341.24075,271.73917 340.6274,264.66879 339.43732,257.79928 C 337.81419,248.43012 335.12834,239.25967 331.69729,230.39155 C 329.17963,223.88423 326.22935,217.48074 322.07976,211.87139 C 318.03365,206.40193 312.91768,201.78185 308.9764,196.23637 C 306.24431,192.39225 304.07657,188.1054 300.7847,184.72825 C 299.13876,183.03967 297.20816,181.59298 295.01495,180.72682 C 292.82174,179.86066 290.35139,179.60236 288.08241,180.24433 C 286.57773,180.67006 285.19048,181.48172 284.0445,182.54569 C 282.89852,183.60966 281.99182,184.92206 281.35175,186.34881 C 280.0716,189.2023 279.87456,192.46122 280.38663,195.54651 C 281.04777,199.52994 282.8307,203.23984 284.85232,206.73524 C 287.12628,210.66693 289.77032,214.4545 293.23674,217.38931 C 296.83524,220.43595 301.19835,222.46344 304.84727,225.44951" id="path14658-9" style="fill:none;stroke:#c17d11;stroke-width:1px;stroke-linecap:butt;stroke-linejoin:miter;stroke-opacity:1"/>
	<path d="M 54.232441,122.36218 C 52.451475,122.45918 50.747825,123.28117 49.44459,124.49888 C 48.141355,125.71659 47.223218,127.31064 46.658409,129.00245 C 45.528791,132.38608 45.782928,136.05422 46.039711,139.61218 C 46.272221,142.8338 46.510115,146.11751 47.716496,149.11376 C 48.319686,150.61189 49.166743,152.02397 50.296834,153.17771 C 51.426926,154.33145 52.84857,155.2196 54.415131,155.61218 C 55.883969,155.98027 57.453292,155.90401 58.897915,155.45009 C 60.342538,154.99618 61.661832,154.17122 62.744151,153.11218 C 64.323191,151.56711 65.387413,149.54598 65.9976,147.42271 C 66.607786,145.29943 66.781757,143.07116 66.750001,140.86218 C 66.710261,138.09783 66.349092,135.32367 65.484246,132.69779 C 64.6194,130.07191 63.238504,127.59452 61.311451,125.61218 C 60.378143,124.65209 59.313685,123.80705 58.112865,123.21471 C 56.912046,122.62238 55.569425,122.28936 54.232441,122.36218" id="path29646-8" style="fill:url(#radialGradient29648);fill-opacity:1;stroke:none"/>
	<path d="M 85.75,122.36218 C 82.969575,124.27241 80.639431,126.93705 79.5,130.11218 C 78.063971,134.11381 78.614162,138.59289 80.0,142.61218 C 81.419488,146.72906 83.793788,150.65316 87.37932,153.12452 C 89.172086,154.36019 91.247411,155.20753 93.409722,155.46311 C 95.572033,155.71869 97.818996,155.36821 99.75,154.36218 C 102.10312,153.13622 103.89782,150.9894 105.01217,148.58142 C 106.12653,146.17344 106.60097,143.51132 106.75,140.86218 C 106.93989,137.48672 106.60953,134.05572 105.5,130.86218 C 104.29473,127.39309 102.10995,124.19163 99.027246,122.19558 C 97.485895,121.19755 95.735299,120.51202 93.916363,120.26043 C 92.097427,120.00885 90.211597,120.19713 88.5,120.86218 C 87.524529,121.24119 86.612562,121.76958 85.75,122.36218" id="path29030-7" style="fill:url(#radialGradient29032);fill-opacity:1;stroke:none"/>
	<path d="M 61.52407,172.7341 C 64.780516,179.82478 68.415145,186.73738 71.64525,193.8401 C 77.861546,207.50919 82.581977,221.94318 84.543499,236.83072 C 86.50502,251.71826 85.648525,267.08862 80.98979,281.36386 C 75.731384,297.4766 65.750937,311.81152 53.52013,323.54518 C 39.052521,337.42472 20.479746,348.12654 0.44649014,348.91518 C -12.607521,349.42907 -25.603691,345.69681 -37.164348,339.6122 C -46.87953,334.4989 -55.747989,327.68526 -62.824588,319.29167 C -69.901186,310.89808 -75.154942,300.90447 -77.58788,290.1988 C -80.583849,277.01562 -79.228956,263.02064 -74.69409,250.28459 C -71.450965,241.17636 -66.644548,232.69691 -63.22206,223.65455 C -59.48226,213.77384 -57.393642,203.22437 -52.438938,193.89348 C -47.947459,185.43495 -41.21257,178.20729 -37.634748,169.32364 C -35.497729,164.01747 -34.571177,158.31825 -33.191229,152.76685 C -31.811281,147.21546 -29.879327,141.62269 -26.121138,137.31012 C -21.592507,132.11345 -14.778117,129.29567 -7.9305313,128.50548 C -1.0829458,127.71528 5.8470835,128.78235 12.56779,130.314 C 17.918434,131.53341 23.202644,133.04931 28.37319,134.88828 C 32.786593,136.45796 37.158853,138.2859 40.97514,141.00214 C 46.174057,144.70247 50.135481,149.91279 53.290358,155.45967 C 56.445235,161.00656 58.860839,166.9351 61.52407,172.7341" id="path29670-2" style="fill:#020204;fill-opacity:1;stroke:none"/>
	<path d="M 4.0355401,349.03896 C 9.5363771,349.35893 15.026436,349.89343 20.47479,350.71624 C 25.266756,351.43992 30.024524,352.38637 34.73448,353.52785 C 42.111625,355.31573 49.462685,357.59575 57.05031,357.81194 C 59.047601,357.86884 61.060589,357.77984 63.010925,357.3456 C 64.961262,356.91132 66.85329,356.12011 68.41548,354.87433 C 70.744704,353.01687 72.225475,350.21584 72.7726,347.28735 C 73.319725,344.35885 72.98091,341.31147 72.123306,338.45841 C 70.408098,332.75228 66.733595,327.8831 63.68677,322.76269 C 61.942033,319.83053 60.387261,316.78282 58.497667,313.94185 C 56.608074,311.10088 54.34631,308.44071 51.47857,306.592 C 47.51091,304.03421 42.590766,303.20013 37.893397,303.66844 C 33.196027,304.13675 28.69299,305.83354 24.50091,308.00404 C 18.624671,311.04653 13.093874,315.22356 9.8894201,321.01307 C 8.7742014,323.02794 7.9641466,325.19418 7.0169477,327.29328 C 6.0697488,329.39239 4.9612945,331.459 3.3566801,333.11086 C 1.5676903,334.95252 -0.75528912,336.19486 -2.6062256,337.97425 C -3.5316938,338.86395 -4.3416952,339.89963 -4.8160763,341.09253 C -5.2904574,342.28543 -5.4077281,343.64846 -4.9748699,344.85705 C -4.6780323,345.68585 -4.1337873,346.41555 -3.4639859,346.98686 C -2.7941844,347.55817 -2.0017536,347.97548 -1.1711646,348.26729 C 0.49001325,348.8509 2.2777978,348.93672 4.0355401,349.03896" id="path29676-3" style="fill:#020204;fill-opacity:1;stroke:none"/>
	<path d="M -12.31313,348.6854 C -16.897032,348.79116 -21.433209,349.61134 -25.923412,350.53947 C -30.215781,351.42671 -34.487614,352.41494 -38.727078,353.52785 C -45.880945,355.40583 -53.044541,357.65476 -60.439128,357.81194 C -62.385238,357.85334 -64.345306,357.74694 -66.241767,357.30815 C -68.138227,356.86941 -69.974772,356.08779 -71.4968,354.87433 C -73.821852,353.02064 -75.299541,350.22494 -75.847193,347.30226 C -76.394845,344.37957 -76.06029,341.33824 -75.211865,338.48829 C -73.515015,332.7884 -69.875482,327.90962 -66.89603,322.76269 C -65.202998,319.83802 -63.708852,316.79625 -61.878069,313.95577 C -60.047286,311.1153 -57.841708,308.44875 -55.018138,306.592 C -51.169788,304.06136 -46.371337,303.20457 -41.787695,303.65641 C -37.204054,304.10825 -32.812603,305.79623 -28.770388,308.00404 C -23.063925,311.12084 -17.853819,315.41032 -14.55422,321.01307 C -12.239278,324.94386 -10.903324,329.43764 -8.1982299,333.11086 C -6.7416417,335.08875 -4.9088986,336.79701 -3.6970192,338.9336 C -3.0910795,340.0019 -2.6473672,341.17901 -2.5438373,342.40282 C -2.4403074,343.62663 -2.6952163,344.90077 -3.3838899,345.9177 C -3.8393724,346.59029 -4.4712211,347.13434 -5.1772321,347.53608 C -5.8832431,347.93781 -6.6625214,348.20077 -7.4576781,348.3668 C -9.0479916,348.69887 -10.68895,348.64793 -12.31313,348.6854" id="path29676-7-1" style="fill:#020204;fill-opacity:1;stroke:none"/>
	<path d="M -37.926938,157.79951 C -38.571108,150.04897 -38.416932,142.25632 -38.706138,134.48444 C -38.984217,127.0116 -39.672556,119.5423 -39.421018,112.06852 C -39.164872,104.45785 -37.890624,96.759366 -34.507158,89.937338 C -31.12211,83.11212 -25.628383,77.329503 -18.92175,73.715195 C -12.6114,70.31445 -5.3557304,68.862307 1.8122201,68.940254 C 11.531014,69.04594 21.275858,71.981863 29.14652,77.68439 C 34.079376,81.258389 38.231233,85.862824 41.50429,91.000298 C 44.297692,95.384894 46.467707,100.17438 47.82951,105.19168 C 50.622455,115.48174 49.960119,126.3395 50.50334,136.98801 C 51.018154,147.07966 52.633903,157.14837 52.0846,167.2382 C 51.965306,169.42945 51.728235,171.67204 50.75157,173.63722 C 49.799788,175.55233 48.183488,177.09247 46.326899,178.15389 C 44.47031,179.21531 42.37965,179.81959 40.266082,180.14573 C 36.038946,180.79802 31.717434,180.36763 27.45854,180.76257 C 21.278599,181.33566 15.383663,183.62773 9.2500901,184.57609 C 1.9405533,185.70627 -5.5072846,184.90476 -12.89779,184.60969 C -15.857737,184.49151 -18.826819,184.45461 -21.76612,184.08615 C -24.70542,183.71769 -27.635628,183.00515 -30.249998,181.6122 C -31.86113,180.75378 -33.343395,179.63719 -34.545423,178.26323 C -35.747451,176.88927 -36.664422,175.25383 -37.122288,173.48663 C -37.809623,170.83376 -37.447138,168.04047 -37.437517,165.30002 C -37.428717,162.79361 -37.719337,160.29733 -37.926938,157.79951" id="path28712-2" style="fill:#020204;fill-opacity:1;stroke:none"/>
	<path d="M -26.295668,154.81433 C -27.342068,156.12569 -28.023402,157.70159 -28.434936,159.32802 C -28.84647,160.95444 -28.997222,162.63603 -29.061467,164.31248 C -29.189957,167.66539 -28.985007,171.08263 -29.872428,174.31852 C -30.82117,177.77802 -32.948379,180.77501 -35.030038,183.69647 C -38.634892,188.75563 -42.278588,193.94658 -44.057098,199.89864 C -45.134201,203.50333 -45.492711,207.32119 -45.105508,211.06338 C -49.140806,216.98958 -52.63436,223.2845 -55.528408,229.84407 C -59.914605,239.7857 -62.924523,250.37057 -63.98296,261.18512 C -65.279011,274.42748 -63.585381,288.04696 -58.355488,300.28167 C -54.574179,309.12759 -48.93778,317.22546 -41.669828,323.52827 C -37.974416,326.73295 -33.870158,329.46771 -29.480328,331.62536 C -14.267813,339.10249 4.5331475,339.11637 19.49263,331.14505 C 27.311009,326.97894 33.910517,320.88685 40.27347,314.72273 C 44.105301,311.01064 47.916997,307.21024 50.84,302.74722 C 56.46746,294.15486 58.427474,283.71156 59.64544,273.51286 C 61.775147,255.67965 61.843843,236.84288 54.02407,220.6747 C 51.331881,215.10832 47.745112,209.97579 43.44342,205.53418 C 42.29795,197.75331 40.037039,190.13752 36.7513,182.99203 C 34.380847,177.83701 31.483,172.93016 29.28051,167.70118 C 28.376295,165.55446 27.590565,163.35632 26.58705,161.25419 C 25.583534,159.15206 24.345604,157.12921 22.66259,155.51878 C 20.939162,153.86968 18.791633,152.70054 16.526656,151.95247 C 14.261678,151.20441 11.877492,150.8655 9.495191,150.74567 C 4.730588,150.50601 -0.04352823,151.12915 -4.8103999,150.9399 C -8.605163,150.78924 -12.388165,150.12424 -16.179317,150.34804 C -18.074894,150.45994 -19.970186,150.79862 -21.729581,151.51294 C -23.488977,152.22726 -25.111307,153.33007 -26.295668,154.81433" id="path29719-5" style="fill:#fdfdfb;fill-opacity:1;stroke:none"/>
	<path d="M -28.632498,172.60136 C -26.929562,177.53911 -23.502148,181.75335 -19.44665,185.0449 C -18.097994,186.1395 -16.664483,187.14932 -15.080417,187.8619 C -13.49635,188.57447 -11.748769,188.98135 -10.01804,188.83435 C -8.3230667,188.69039 -6.7105694,188.02499 -5.229319,187.1886 C -3.7480685,186.3522 -2.3733017,185.34172 -0.93632986,184.43135 C 1.5262907,182.8712 4.1635098,181.60996 6.7208301,180.21043 C 9.8032923,178.52351 12.79043,176.62029 15.38552,174.25116 C 16.573468,173.16665 17.681268,171.98321 18.993039,171.05228 C 20.304809,170.12134 21.876026,169.44656 23.48085,169.55577 C 24.684703,169.63767 25.813758,170.14963 26.99334,170.40371 C 27.583132,170.53075 28.194124,170.59303 28.790555,170.50211 C 29.386986,170.41121 29.970282,170.15772 30.38845,169.72283 C 30.900817,169.18997 31.124856,168.42302 31.098057,167.68428 C 31.071257,166.94554 30.813609,166.23125 30.469204,165.57716 C 29.780394,164.26897 28.734657,163.14203 28.26898,161.73883 C 27.854585,160.49016 27.938529,159.13996 27.975051,157.82482 C 28.011571,156.50969 27.982551,155.1358 27.37645,153.96811 C 26.914859,153.07889 26.140324,152.37286 25.25481,151.9042 C 24.369297,151.43553 23.376232,151.19419 22.378729,151.10055 C 20.383722,150.91328 18.3848,151.30052 16.38424,151.41404 C 13.728423,151.56474 11.062283,151.23228 8.4069901,151.39194 C 5.0956989,151.59104 1.8499763,152.55247 -1.4672899,152.55839 C -5.2532664,152.56539 -9.0354122,151.32647 -12.77483,151.91843 C -14.37941,152.17244 -15.909608,152.75603 -17.450515,153.27062 C -18.991421,153.78522 -20.583257,154.23786 -22.207648,154.21433 C -24.051846,154.18763 -25.83692,153.54896 -27.676633,153.41767 C -28.596489,153.35207 -29.539103,153.41749 -30.402719,153.74093 C -31.266334,154.06437 -32.047232,154.6645 -32.471068,155.48353 C -32.713937,155.95285 -32.834262,156.48036 -32.856927,157.00832 C -32.879587,157.53627 -32.806667,158.06534 -32.679099,158.57815 C -32.423967,159.60378 -31.954866,160.561 -31.569278,161.54503 C -30.17677,165.09876 -29.876917,168.99309 -28.632498,172.60135" id="path28461-8-7" style="fill:#000000;fill-opacity:0.25882353000000002;stroke:none;filter:url(#filter30479-2)"/>
	<path d="M -54.3809,165.4735 C -51.072419,167.69242 -48.104181,170.41763 -45.61141,173.525 C -43.298166,176.40858 -41.330338,179.6793 -38.3121,181.81386 C -36.179539,183.32205 -33.617225,184.17166 -31.01804,184.42992 C -27.966531,184.73312 -24.878279,184.24307 -21.93633,183.37787 C -19.20969,182.57599 -16.573105,181.44856 -14.15417,179.95647 C -9.5559374,177.12011 -5.7149564,172.96368 -0.64415,171.09938 C 0.4628751,170.69238 1.6150845,170.40121 2.6823587,169.89914 C 3.7496328,169.39706 4.7537147,168.6451 5.26345,167.58146 C 5.753429,166.55905 5.7344137,165.37897 5.89398,164.2565 C 6.0646872,163.05565 6.4477433,161.89466 6.6578532,160.70008 C 6.8679631,159.5055 6.8930267,158.22774 6.37645,157.13033 C 5.9486778,156.22157 5.1710631,155.50253 4.2765746,155.04567 C 3.382086,154.58881 2.375493,154.38127 1.3722945,154.33205 C -0.63410243,154.23355 -2.6152534,154.74724 -4.61576,154.92971 C -7.265315,155.17138 -9.9336608,154.83061 -12.59301,154.91071 C -15.901288,155.01031 -19.161201,155.75955 -22.46729,155.91574 C -26.238942,156.09392 -30.001346,155.49823 -33.77483,155.36435 C -35.407081,155.30645 -37.05023,155.33575 -38.659132,155.61689 C -40.268034,155.89801 -41.847329,156.43857 -43.20765,157.34252 C -44.527629,158.21966 -45.604387,159.4098 -46.814217,160.43353 C -47.419133,160.9454 -48.061974,161.41861 -48.767965,161.77848 C -49.473956,162.13835 -50.246764,162.38299 -51.03827,162.42105 C -51.44555,162.44065 -51.856615,162.40585 -52.25957,162.46825 C -52.935742,162.57288 -53.563279,162.9618 -53.957854,163.52079 C -54.35243,164.07978 -54.50875,164.80132 -54.3809,165.47349 L -54.3809,165.4735" id="path28461-84-3" style="opacity:0.29999999999999999;fill:#000000;fill-opacity:1;stroke:none;filter:url(#filter30475-4)" transform="matrix(1,0,0,0.92110599,21,6.1075063)"/>
	<path d="M -24.767558,113.36218 C -26.548524,113.45918 -28.252174,114.28117 -29.55541,115.49888 C -30.858645,116.71659 -31.776782,118.31064 -32.341591,120.00245 C -33.471209,123.38608 -33.217071,127.05422 -32.960288,130.61218 C -32.727778,133.8338 -32.489884,137.11751 -31.283503,140.11376 C -30.680313,141.61189 -29.833257,143.02397 -28.703165,144.17771 C -27.573073,145.33145 -26.151429,146.2196 -24.584868,146.61218 C -23.11603,146.98027 -21.546708,146.90401 -20.102085,146.45009 C -18.657463,145.99617 -17.338169,145.17122 -16.25585,144.11218 C -14.67681,142.56711 -13.612588,140.54598 -13.002401,138.42271 C -12.392215,136.29943 -12.218244,134.07116 -12.25,131.86218 C -12.28974,129.09783 -12.650909,126.32367 -13.515755,123.69779 C -14.380601,121.07191 -15.761498,118.59452 -17.68855,116.61218 C -18.621858,115.65209 -19.686315,114.80705 -20.887135,114.21471 C -22.087954,113.62238 -23.430574,113.28936 -24.767558,113.36218" id="path28795-9-5" style="fill:url(#radialGradient18806);fill-opacity:1;stroke:none"/>
	<path d="M 6.7500001,113.36218 C 3.9695751,115.27241 1.6394311,117.93705 0.50000014,121.11218 C -0.93602926,125.11381 -0.38583793,129.59289 1.0000001,133.61218 C 2.4194878,137.72906 4.7937881,141.65316 8.3793201,144.12452 C 10.172086,145.36019 12.247411,146.20753 14.409722,146.46311 C 16.572033,146.71869 18.818996,146.36821 20.75,145.36218 C 23.103116,144.13622 24.897816,141.9894 26.012172,139.58142 C 27.126528,137.17344 27.600969,134.51132 27.75,131.86218 C 27.939892,128.48672 27.609531,125.05572 26.5,121.86218 C 25.294734,118.39309 23.109949,115.19163 20.027246,113.19558 C 18.485895,112.19755 16.735299,111.51202 14.916363,111.26043 C 13.097427,111.00885 11.211597,111.19713 9.5000001,111.86218 C 8.5245288,112.24119 7.6125617,112.76958 6.7500001,113.36218" id="path28795-3" style="fill:url(#radialGradient18808);fill-opacity:1;stroke:none"/>
	<path d="M -25.360588,142.15408 C -27.14707,143.63148 -28.861767,145.19568 -30.496608,146.83931 C -31.400431,147.74799 -32.305708,148.72286 -32.711198,149.93866 C -33.071748,151.01972 -33.003188,152.19189 -33.180028,153.31768 C -33.240598,153.7033 -33.330458,154.08704 -33.33208,154.47739 C -33.332892,154.67256 -33.31125,154.86886 -33.25388,155.05541 C -33.19652,155.24197 -33.102546,155.41879 -32.969236,155.56135 C -32.747433,155.79854 -32.431008,155.92717 -32.112803,155.99198 C -31.794598,156.05678 -31.467931,156.06448 -31.145076,156.09944 C -29.689064,156.25691 -28.346858,156.96282 -27.141286,157.7943 C -25.935714,158.62579 -24.826576,159.59444 -23.590306,160.37955 C -20.85925,162.11395 -17.597261,162.88432 -14.364367,163.00768 C -11.131473,163.13104 -7.9063535,162.63704 -4.7339179,162.00263 C -2.2131782,161.49855 0.29993151,160.90169 2.6915221,159.95907 C 6.3540775,158.51552 9.6550576,156.2922 12.809712,153.93714 C 14.242705,152.86736 15.655688,151.76396 16.942222,150.52189 C 17.378903,150.1003 17.801385,149.66242 18.26979,149.27639 C 18.738194,148.89035 19.257948,148.55462 19.835762,148.36872 C 20.716528,148.08536 21.671386,148.16669 22.583952,148.31922 C 23.271268,148.4341 23.959948,148.58824 24.656246,148.5605 C 25.004396,148.5466 25.352853,148.4863 25.676304,148.3568 C 25.999755,148.22726 26.297856,148.02652 26.519602,147.75777 C 26.810994,147.4046 26.959565,146.94332 26.961206,146.48547 C 26.962806,146.02761 26.822498,145.57452 26.590149,145.17999 C 26.125452,144.39094 25.321903,143.85688 24.485112,143.48496 C 23.338974,142.97555 22.098813,142.7236 20.879602,142.42923 C 17.134313,141.52496 13.49485,140.18867 10.043832,138.47538 C 8.3282345,137.62365 6.6602813,136.67983 4.9720821,135.77501 C 3.2365153,134.8448 1.4675131,133.95086 -0.41694786,133.37965 C -4.6302681,132.10252 -9.2354763,132.52136 -13.394428,133.96574 C -18.014337,135.57021 -22.191874,138.42886 -25.360586,142.15406 L -25.360586,142.15408" id="path27476-76-1" style="opacity:0.29999999999999999;fill:#000000;fill-opacity:1;stroke:none;filter:url(#filter4394-6)"/>
	<path d="M -16.39938,136.86218 C -14.632014,134.87556 -13.423188,132.45165 -11.725238,130.40539 C -10.876263,129.38225 -9.8968169,128.45006 -8.7435563,127.78858 C -7.5902957,127.12711 -6.2515794,126.74748 -4.9270399,126.86218 C -3.4525497,126.98987 -2.0724963,127.72446 -0.99296524,128.7369 C 0.08656579,129.74934 0.88680306,131.02717 1.5256801,132.36218 C 2.1374198,133.64049 2.6234436,135.00245 3.5048001,136.11218 C 4.4451261,137.29616 5.7643275,138.10436 6.955891,139.03506 C 7.5516728,139.50041 8.123368,140.00417 8.5942888,140.59556 C 9.0652097,141.18695 9.4339005,141.87151 9.5852801,142.61218 C 9.7390035,143.36432 9.6624331,144.15724 9.4001009,144.87871 C 9.1377683,145.60019 8.6934045,146.25045 8.1404746,146.783 C 7.0346148,147.8481 5.5268935,148.42257 4.006663,148.63766 C 0.96620177,149.06782 -2.1079999,148.16183 -5.1775799,148.24624 C -8.2844701,148.33164 -11.319135,149.4299 -14.425124,149.31631 C -15.978118,149.25951 -17.553187,148.88007 -18.829376,147.9933 C -19.46747,147.54991 -20.023384,146.98275 -20.425207,146.3177 C -20.827031,145.65265 -21.071895,144.88876 -21.09807,144.11218 C -21.12304,143.37126 -20.950027,142.6313 -20.653995,141.95163 C -20.357962,141.27196 -19.941314,140.64988 -19.471872,140.07611 C -18.532989,138.92858 -17.384879,137.96994 -16.39938,136.86218" id="path28849-2" style="fill:url(#radialGradient18810);fill-opacity:1;stroke:none"/>
	<path d="M 277.9604,90.856536 C 275.73554,92.426509 276.70751,94.387013 277.66436,96.35442 C 278.62121,98.321827 275.56007,103.99411 275.52785,104.23876 C 275.49565,104.48341 281.55319,101.36336 283.20396,99.336793 C 285.15352,96.94342 290.08099,102.57471 289.81247,101.71796 C 289.81447,100.18484 280.18526,89.286563 277.9604,90.856536" id="path28767-3" style="fill:#7c7c7c;fill-opacity:1;stroke:none;filter:url(#filter15133-1)" transform="matrix(1.1522137,0,0,1.1522137,-302.02706,-22.837384)"/>
	<path d="M 302.16152,130.75695 C 301.11604,130.83185 300.09715,131.18875 299.21017,131.74723 C 298.32318,132.30571 297.5669,133.06244 296.97316,133.92622 C 295.78568,135.65379 295.26422,137.77297 295.18016,139.86761 C 295.11706,141.43991 295.29114,143.03273 295.81261,144.51738 C 296.33408,146.00203 297.2135,147.37615 298.42537,148.37989 C 299.66548,149.40702 301.24184,150.02353 302.85022,150.10083 C 304.4586,150.17813 306.0897,149.71418 307.41127,148.79423 C 308.46415,148.06131 309.31337,147.05255 309.91793,145.92108 C 310.52248,144.7896 310.88672,143.5376 311.05323,142.26559 C 311.34734,140.01881 311.01473,137.67264 309.97631,135.65864 C 308.9379,133.64463 307.1758,131.98595 305.04957,131.20258 C 304.12864,130.86328 303.14046,130.68682 302.16152,130.75695" id="path28879-6" style="fill:#020204;fill-opacity:1;stroke:none"/>
	<path d="M 304.65625,137.61218 C 303.79034,137.9538 302.41968,137.73895 302.04003,138.58888 C 301.8151,139.09245 302.13273,139.9214 302.64346,140.12949 C 303.6759,140.55012 305.27539,139.78838 305.69222,138.75439 C 305.87326,138.30529 305.59882,137.59338 305.15248,137.40574 C 304.98733,137.33634 304.8229,137.54643 304.65625,137.61218 L 304.65625,137.61218" id="path28891-5" style="fill:#141413;fill-opacity:1;stroke:none;filter:url(#filter28927-8)"/>
	<path d="M 308.625,139.86218 C 309.78613,138.70105 307.79887,135.62267 306.25,134.36218 C 305.12816,133.44922 301.85937,132.49367 302.0,133.48718 C 302.14063,134.48069 303.60988,135.75365 304.59467,136.72462 C 305.80703,137.91995 308.07353,140.41365 308.625,139.86218" id="path28887-6" style="fill:url(#linearGradient18812);fill-opacity:1;stroke:none;filter:url(#filter28949-8)"/>
	<path clip-path="url(#clipPath29028-5)" d="M 75.25,132.48718 C 77.633746,130.50704 80.410908,129.00244 83.37154,128.0871 C 89.457104,126.20563 96.371217,126.95004 101.75,130.36218 C 103.60708,131.54026 105.26244,133.0041 106.98935,134.36585 C 108.71626,135.72761 110.5505,137.00707 112.625,137.73718 C 113.74586,138.13166 114.94318,138.36063 116.125,138.23718 C 117.19268,138.12565 118.22428,137.72538 119.10944,137.11803 C 119.99459,136.51067 120.7342,135.69953 121.29008,134.78117 C 122.40184,132.94447 122.76009,130.7166 122.56847,128.57819 C 122.18523,124.30137 119.77291,120.52478 117.75,116.73718 C 117.11658,115.5512 116.51358,114.34385 115.75,113.23718 C 113.40673,109.84102 109.67688,107.60156 105.76502,106.28924 C 101.85317,104.97691 97.718763,104.50285 93.625,103.98718 C 91.799264,103.7572 89.951968,103.5172 88.125,103.73718 C 86.025203,103.99001 84.049022,104.83818 82.0,105.36218 C 81.027352,105.61092 80.036338,105.78696 79.071971,106.06609 C 78.107605,106.34521 77.159014,106.73509 76.375,107.36218 C 75.230183,108.27785 74.509944,109.65306 74.198496,111.08556 C 73.887047,112.51806 73.957979,114.01 74.186886,115.45798 C 74.644695,118.35395 75.727772,121.18205 75.625002,124.11218 C 75.554422,126.12445 74.922715,128.10015 75.000002,130.11218 C 75.022662,130.70205 75.10659,131.28956 75.250002,131.86218" id="path28972-5" style="fill:url(#linearGradient18814);fill-opacity:1;stroke:none" transform="translate(-79,-9.0000017)"/>
	<path d="M 16.40625,105.125 C 15.9293,105.72485 15.49827,106.37731 15.15625,107.09375 C 17.30266,107.55622 19.35531,108.4395 21.1875,109.65625 C 24.73257,112.01052 27.4245,115.45275 29.3125,119.28125 C 29.75326,118.79318 30.15452,118.26941 30.5,117.6875 C 28.60249,113.6997 25.85618,110.0926 22.1875,107.65625 C 20.42519,106.4859 18.46285,105.60256 16.40625,105.125" id="path28795-92-2" style="fill:url(#linearGradient18816);fill-opacity:1;stroke:none;filter:url(#filter29350-1)"/>
	<path d="M -24.968748,107.08112 C -25.210558,107.07612 -25.445528,107.09772 -25.687498,107.10952 C -25.843008,107.11652 -26.001658,107.12332 -26.156248,107.13792 C -24.743178,107.26631 -23.338738,107.64601 -22.062498,108.21928 C -20.32389,109.00023 -18.78879,110.11217 -17.4375,111.37798 C -14.9338,113.72331 -13.07248,116.61768 -11.8125,119.68737 C -12.12381,117.3225 -12.83869,115.08341 -13.875,113.02848 C -14.36856,112.45716 -14.88062,111.89964 -15.4375,111.37798 C -16.78879,110.11217 -18.32389,109.00023 -20.0625,108.21928 C -21.58378,107.53594 -23.276098,107.1114 -24.968748,107.081 L -24.968748,107.08112" id="path28795-9-2-2" style="fill:url(#linearGradient18818);fill-opacity:1;stroke:none;filter:url(#filter29447-1)"/>
	<path d="M 159.93889,137.11161 C 159.56678,139.35735 159.55326,141.7136 160.32529,143.85505 C 160.83508,145.26909 161.6757,146.55197 162.69747,147.6544 C 163.3665,148.37624 164.12571,149.03219 165.01323,149.45758 C 165.90075,149.88297 166.92901,150.06396 167.88358,149.82429 C 168.76471,149.60306 169.53514,149.0357 170.10371,148.32714 C 170.67227,147.61857 171.05131,146.77419 171.32141,145.9068 C 172.11881,143.34605 171.99067,140.54515 171.199,137.98262 C 170.6222,136.11561 169.66692,134.31468 168.17236,133.05582 C 167.45929,132.45521 166.62463,131.98467 165.71757,131.76918 C 164.8105,131.55368 163.82883,131.60413 162.98003,131.98981 C 162.03773,132.41798 161.30844,133.23285 160.83096,134.15115 C 160.35347,135.06944 160.10808,136.09051 159.93889,137.11161" id="path29453-9" style="fill:#020204;fill-opacity:1;stroke:none"/>
	<path d="M 164.6875,135.48718 C 164.92935,136.12088 165.74168,136.35099 166.1875,136.86218 C 166.62052,137.35869 167.07485,137.87273 167.3125,138.48718 C 167.7674,139.66334 166.8637,141.40649 167.8125,142.23718 C 168.11032,142.49793 168.70722,142.50357 169.0,142.23718 C 170.14539,141.19503 169.89094,139.09285 169.4375,137.61218 C 169.026,136.26847 168.01003,134.99581 166.75827,134.35706 C 166.17945,134.0617 165.3075,133.81617 164.8125,134.23718 C 164.49352,134.50848 164.53819,135.09596 164.6875,135.48718" id="path29465-8" style="fill:url(#linearGradient18820);fill-opacity:1;stroke:none;filter:url(#filter29493-2)"/>
	<path d="M 45.751683,165.03156 C 45.813143,165.32695 45.924192,165.61195 46.078773,165.87106 C 46.344456,166.31639 46.732708,166.67737 47.152029,166.98246 C 47.57135,167.28755 48.024828,167.54193 48.463856,167.81791 C 50.797502,169.28486 52.699218,171.34696 54.38859,173.525 C 56.655133,176.44717 58.660503,179.68991 61.6879,181.81386 C 63.825681,183.31368 66.383613,184.16887 68.98196,184.42992 C 72.033277,184.73648 75.121836,184.24397 78.06367,183.37787 C 80.790054,182.5752 83.426769,181.44831 85.84583,179.95647 C 90.444337,177.12056 94.285079,172.96376 99.35585,171.09938 C 100.46287,170.69236 101.61507,170.40119 102.68235,169.89912 C 103.74962,169.39705 104.75371,168.64509 105.26345,167.58146 C 105.75343,166.55905 105.73442,165.37897 105.89398,164.2565 C 106.06468,163.05566 106.44772,161.89466 106.65783,160.70008 C 106.86793,159.5055 106.893,158.22775 106.37645,157.13033 C 105.9487,156.22155 105.1711,155.50247 104.27662,155.04558 C 103.38214,154.58868 102.37554,154.38111 101.37233,154.33186 C 99.365915,154.23336 97.384749,154.74705 95.38424,154.92971 C 92.734706,155.17164 90.066366,154.83151 87.40699,154.91071 C 84.098694,155.00931 80.838588,155.75539 77.53271,155.91574 C 73.761192,156.09868 69.998025,155.51723 66.22517,155.36435 C 64.591104,155.29815 62.945208,155.31315 61.333351,155.58966 C 59.721494,155.8662 58.138117,156.41329 56.79235,157.34252 C 55.480908,158.24805 54.436434,159.48274 53.232161,160.52657 C 52.630024,161.04849 51.982673,161.52586 51.265888,161.87397 C 50.549103,162.22209 49.758398,162.43797 48.96173,162.42105 C 48.552129,162.41205 48.130869,162.34415 47.74043,162.46825 C 47.496515,162.54575 47.279952,162.6953 47.096898,162.87418 C 46.913844,163.05306 46.762111,163.26123 46.6191,163.47349 C 46.286563,163.96705 45.996034,164.4889 45.751683,165.03156" id="path28461-2" style="fill:url(#radialGradient18822);fill-opacity:1;stroke:none"/>
	<path d="M 60.55673,169.09742 C 60.170268,170.69347 60.404738,172.4315 61.20032,173.86809 C 61.995902,175.30468 63.344711,176.42559 64.90263,176.94485 C 66.880385,177.60404 69.109205,177.2812 70.9574,176.31672 C 72.028762,175.75763 73.008571,174.97084 73.626779,173.93247 C 73.935884,173.41329 74.15076,172.8354 74.231297,172.23656 C 74.311837,171.63772 74.256007,171.01806 74.04641,170.45134 C 73.816695,169.83022 73.406149,169.28285 72.900357,168.85538 C 72.394566,168.4279 71.795689,168.11758 71.166921,167.9097 C 69.909384,167.49395 68.555985,167.48565 67.23303,167.54919 C 65.227821,167.64549 63.230112,167.89756 61.26383,168.30237" id="path28487-2" style="fill:#d9b30d;fill-opacity:1;stroke:none;filter:url(#filter28502-8)"/>
	<path d="M 54.0663,156.67992 C 52.727345,157.47139 51.437716,158.34361 50.1688,159.24309 C 49.512095,159.7086 48.834632,160.21204 48.48824,160.93866 C 48.242739,161.45364 48.186472,162.03769 48.178654,162.60814 C 48.170854,163.17859 48.207494,163.75213 48.132474,164.31768 C 48.081234,164.70393 47.978148,165.08387 47.960937,165.47312 C 47.952337,165.66775 47.965637,165.86457 48.016957,166.0525 C 48.068297,166.24043 48.158859,166.41954 48.292439,166.56135 C 48.464995,166.74453 48.70037,166.85726 48.941089,166.93066 C 49.181808,167.00406 49.431727,167.04186 49.676709,167.09944 C 50.851371,167.37555 51.873626,168.0962 52.770834,168.9031 C 53.668042,169.71 54.473717,170.61797 55.409699,171.37955 C 57.946954,173.44404 61.300177,174.29827 64.570787,174.35209 C 67.841397,174.40589 71.074991,173.72143 74.266089,173.00263 C 76.772411,172.43807 79.281067,171.84791 81.691529,170.95907 C 85.394281,169.5937 88.832277,167.5274 91.809719,164.93714 C 93.159687,163.76272 94.426938,162.4735 95.942229,161.52189 C 97.283155,160.67978 98.784851,160.12393 100.148559,159.31924 C 100.270489,159.24724 100.391769,159.17303 100.500689,159.08259 C 100.609619,158.99209 100.706429,158.88449 100.769609,158.75779 C 100.878779,158.53885 100.878979,158.27656 100.808509,158.04227 C 100.738109,157.80798 100.602179,157.59838 100.448509,157.40802 C 100.278519,157.19744 100.085149,157.00644 99.879559,156.83046 C 98.45518,155.61125 96.522803,155.16801 94.653749,155.01979 C 92.784696,154.87157 90.893077,154.97639 89.043789,154.66741 C 87.305142,154.37693 85.650521,153.7286 83.972039,153.19011 C 82.210097,152.62484 80.409263,152.1776 78.583009,151.87967 C 74.288253,151.17904 69.865689,151.31326 65.605529,152.2003 C 61.547844,153.04518 57.634242,154.57086 54.066259,156.67992" id="path27476-7-8" style="fill:#604405;fill-opacity:1;stroke:none;filter:url(#filter15145-6)"/>
	<path d="M 53.63941,152.15408 C 51.710019,153.45268 49.973275,155.03699 48.50339,156.83931 C 47.662692,157.87014 46.899663,158.99015 46.4763,160.25116 C 46.143304,161.24301 46.029822,162.29269 45.81997,163.31768 C 45.74136,163.70166 45.648584,164.08691 45.650229,164.47886 C 45.651051,164.67483 45.675909,164.87167 45.736689,165.05798 C 45.797479,165.24429 45.894999,165.42002 46.030758,165.56135 C 46.255437,165.79526 46.571167,165.92236 46.88886,165.98767 C 47.206552,166.05297 47.532658,166.06277 47.854918,166.09944 C 49.309555,166.26479 50.649381,166.97143 51.855251,167.8016 C 53.06112,168.63177 54.172363,169.59703 55.409688,170.37955 C 58.143581,172.10854 61.404242,172.87784 64.63659,173.0024 C 67.868937,173.12696 71.093944,172.63599 74.266078,172.00263 C 76.786981,171.49929 79.300002,170.90191 81.691518,169.95907 C 85.353929,168.51518 88.655025,166.29214 91.809708,163.93714 C 93.242718,162.86738 94.655688,161.76396 95.942218,160.52189 C 96.378898,160.1003 96.80138,159.66242 97.269785,159.27638 C 97.738189,158.89035 98.257944,158.55461 98.835758,158.36872 C 99.716524,158.08536 100.671378,158.16669 101.583948,158.31922 C 102.271268,158.4341 102.959948,158.58824 103.656238,158.5605 C 104.004388,158.5466 104.352848,158.4863 104.676298,158.3568 C 104.999748,158.22726 105.297848,158.02652 105.519598,157.75777 C 105.810988,157.4046 105.959558,156.94332 105.961198,156.48547 C 105.963198,156.02761 105.822498,155.57452 105.590148,155.17999 C 105.125448,154.39094 104.321898,153.85688 103.485108,153.48496 C 102.338968,152.97555 101.098808,152.7236 99.879598,152.42923 C 96.134309,151.52496 92.494846,150.18867 89.043828,148.47538 C 87.328231,147.62365 85.660277,146.67983 83.972078,145.77501 C 82.236511,144.8448 80.467509,143.95086 78.583048,143.37965 C 74.369728,142.10252 69.76452,142.52136 65.605568,143.96574 C 60.985659,145.57021 56.808121,148.42886 53.639408,152.15406 L 53.639408,152.15408" id="path27476-4" style="fill:url(#linearGradient18824);fill-opacity:1;stroke:none"/>
	<path d="M 83.23853,153.07989 C 83.012034,152.79366 82.687391,152.5919 82.337236,152.48886 C 81.987081,152.38582 81.612567,152.37846 81.252804,152.44006 C 80.533277,152.56328 79.888308,152.95055 79.28706,153.36456 C 77.578508,154.54104 76.068196,155.99278 74.74975,157.59433 C 73.004527,159.71429 71.56476,162.16604 71.0822,164.86922 C 71.00089,165.32469 70.947094,165.79054 71.00399,166.24971 C 71.06089,166.70887 71.236782,167.1645 71.562698,167.4929 C 71.848869,167.78125 72.238425,167.95715 72.640545,168.01493 C 73.042665,168.07273 73.456446,168.01693 73.841302,167.88657 C 74.611015,167.62638 75.250289,167.08715 75.855738,166.54531 C 79.191711,163.55983 82.20826,159.97755 83.415308,155.66654 C 83.536436,155.23393 83.63932,154.79088 83.636541,154.34164 C 83.633741,153.8924 83.517304,153.43217 83.238528,153.07988" id="path28357-7" style="fill:#f6da4a;fill-opacity:1;stroke:none;filter:url(#filter14963-7)"/>
	<path d="M 75.2513,146.88985 C 75.48259,147.63225 76.67908,147.5092 77.37036,147.86527 C 77.97695,148.17771 78.46483,148.8625 79.14687,148.88219 C 79.7978,148.90099 80.81085,148.65677 80.89553,148.0111 C 81.0074,147.15807 79.76174,146.61599 78.96017,146.30348 C 77.92869,145.90132 76.60716,145.69728 75.63957,146.23528 C 75.41784,146.35856 75.17584,146.64766 75.2513,146.88986 L 75.2513,146.88985" id="path28396-7" style="opacity:0.80000000000000004;fill:url(#radialGradient18826);fill-opacity:1;stroke:none;filter:url(#filter15177-1)"/>
	<path d="M 63.8271,146.47001 C 62.93894,146.18147 61.46962,147.74747 61.94904,148.54887 C 62.08071,148.76896 62.48395,149.04803 62.75545,148.89879 C 63.1647,148.67382 63.49949,147.86921 63.94291,147.55383 C 64.23899,147.34325 64.17265,146.58227 63.8271,146.47001" id="path28398-7" style="opacity:0.80000000000000004;fill:url(#radialGradient18828);fill-opacity:1;stroke:none;filter:url(#filter15173-0)"/>
	<path d="M 245.90496,158.28406 C 245.90496,159.56985 244.73728,160.61218 243.29687,160.61218 C 241.85647,160.61218 240.68879,159.56985 240.68879,158.28406 C 240.68879,156.99827 241.85647,155.95593 243.29687,155.95593 C 244.73728,155.95593 245.90496,156.99827 245.90496,158.28406" id="path28570-8" style="color:#000000;fill:url(#linearGradient18830);fill-opacity:1;fill-rule:nonzero;stroke:none;stroke-width:0.25000000000000000;marker:none;visibility:visible;display:inline;overflow:visible;filter:url(#filter28584-4);enable-background:accumulate" transform="matrix(1.0956223,0,-0.17017853,1.5181314,-136.24431,-82.11746)"/>
	<path clip-path="url(#clipPath29644-8)" d="M 50.39208,129.52717 C 53.07745,127.92784 56.34715,127.55683 59.458779,127.85152 C 62.570408,128.1462 65.584213,129.05999 68.60008,129.88073 C 70.811705,130.48261 73.051659,131.04222 75.125405,132.0185 C 77.199152,132.99477 79.125295,134.43418 80.26734,136.42146 C 80.450531,136.74023 80.612597,137.07116 80.806594,137.38347 C 81.00059,137.69579 81.229704,137.99214 81.52305,138.21378 C 81.816396,138.43542 82.180044,138.57808 82.547157,138.55802 C 82.730714,138.54802 82.912769,138.49712 83.071333,138.40414 C 83.229896,138.31114 83.364278,138.17543 83.44932,138.01245 C 83.5471,137.82506 83.577399,137.60799 83.566459,137.39691 C 83.555519,137.18583 83.505239,136.97886 83.44932,136.77502 C 82.694118,134.02206 80.91433,131.6867 79.56023,129.17362 C 78.74763,127.66552 78.083267,126.08089 77.26213,124.57742 C 74.44384,119.41723 69.818533,115.36178 64.560725,112.73009 C 59.302917,110.09839 53.43328,108.83396 47.56365,108.49075 C 40.762468,108.09307 33.943889,108.9002 27.23433,110.08174 C 24.325731,110.59394 21.37354,111.19685 18.798644,112.6433 C 17.511197,113.36652 16.331192,114.29992 15.41017,115.45417 C 14.489148,116.60842 13.833693,117.9894 13.62252,119.4509 C 13.418998,120.85945 13.63132,122.31147 14.123821,123.64672 C 14.616305,124.98196 15.382067,126.20522 16.280358,127.30908 C 18.076942,129.51679 20.381023,131.24269 22.50279,133.14 C 24.624098,135.0369 26.5928,137.13204 28.965738,138.70282 C 30.152207,139.48821 31.438402,140.13781 32.809123,140.51948 C 34.179843,140.90114 35.639041,141.00865 37.03295,140.72306 C 38.477937,140.427 39.815639,139.71806 40.986574,138.82109 C 42.157508,137.92412 43.172703,136.84103 44.134991,135.72316 C 46.059567,133.48741 47.85753,131.03668 50.39208,129.52717" id="path29551-9" style="fill:url(#radialGradient18832);fill-opacity:1;stroke:none" transform="translate(-79,-9.0000017)"/>
	<path d="M 66.1015,216.44951 C 72.186296,221.34414 76.047075,228.73548 77.24246,236.45256 C 78.174748,242.47115 77.568803,248.64752 76.211766,254.58479 C 74.854728,260.52205 72.759554,266.26094 70.68005,271.9853 C 69.850806,274.268 69.017864,276.5724 68.688364,278.9786 C 68.358864,281.38481 68.567515,283.93286 69.7279,286.06637 C 71.058123,288.51215 73.540854,290.19658 76.20974,290.98929 C 78.844681,291.77192 81.690782,291.75547 84.357926,291.09082 C 87.025071,290.42616 89.515298,289.12741 91.6863,287.44153 C 97.201851,283.15847 100.52987,276.49282 101.81818,269.62942 C 103.1065,262.76603 102.51455,255.67904 101.31669,248.79928 C 99.68327,239.41792 96.93497,230.24823 93.43678,221.39155 C 90.863636,214.87689 87.852659,208.47148 83.64543,202.87139 C 79.52837,197.39132 74.338579,192.77836 70.30525,187.23637 C 67.502629,183.38543 65.257547,179.08691 61.898883,175.70996 C 60.219551,174.02149 58.258473,172.57767 56.038652,171.71541 C 53.818831,170.85315 51.325992,170.59918 49.03364,171.24433 C 46.012191,172.09467 43.543865,174.47546 42.230728,177.32641 C 40.917592,180.17736 40.687888,183.44954 41.19878,186.54651 C 41.857875,190.54187 43.685058,194.24909 45.74517,197.73524 C 48.071849,201.67248 50.767163,205.46231 54.28113,208.38931 C 57.948279,211.4439 62.382662,213.45806 66.1015,216.44951" id="path29705-5-0" style="fill:#020204;fill-opacity:1;stroke:none"/>
	<path clip-path="url(#clipPath14656-7)" d="M 290.78125,216.01843 C 291.26607,216.48617 291.76216,216.96104 292.28125,217.39343 C 295.9484,220.44802 297.90004,223.87869 301.61888,226.87014 C 307.70368,231.76477 313.87783,240.21372 315.07322,247.9308 C 316.00551,253.94939 314.77229,257.22027 313.26854,264.3186 C 311.7648,271.41692 307.4991,281.46692 305.19478,288.31071 C 304.27588,291.03981 307.05599,289.91377 306.69087,292.79051 C 306.51143,294.20435 306.49321,295.63289 306.65627,297.04968 C 306.67897,296.77864 306.69507,296.49718 306.72557,296.22774 C 307.16838,292.305 308.34888,288.53295 309.63435,284.8326 C 312.10851,277.71046 314.94869,270.73151 316.90631,263.42468 C 318.86394,256.11785 318.64659,250.86025 317.62506,244.58093 C 316.34047,236.68456 311.82803,229.39391 305.43756,224.58093 C 300.91904,221.1778 295.59068,218.99628 290.78131,216.01843 L 290.78125,216.01843" id="path29705-9" style="fill:#838384;fill-opacity:1;stroke:none;filter:url(#filter14666-9)" transform="matrix(1.0180731,0,0,1,-244.25531,-9.0000017)"/>
	<path d="M -61.00266,211.59308 C -60.12261,213.11695 -61.55003,218.37137 -41.03885,215.00838 C -41.03885,215.00838 -44.64087,215.46568 -48.19166,216.41257 C -53.71293,218.54597 -58.52187,220.92963 -62.23185,224.08781 C -65.90738,227.20948 -68.59892,231.28475 -71.97158,234.78486 C -71.97158,234.78486 -66.50985,223.26616 -65.14827,219.79744 C -63.7867,216.32872 -65.37622,216.48745 -64.29934,211.38384 C -63.22246,206.28024 -60.58588,201.37685 -60.58588,201.37685 C -60.58588,201.37685 -62.73829,208.58773 -61.00266,211.59308 L -61.00266,211.59308" id="path4400-1" style="opacity:0.25000000000000000;fill:url(#radialGradient18834);fill-opacity:1;stroke:none;filter:url(#filter4487-6)" transform="matrix(1.1543044,0,0,1,27.33247,-9.0000017)"/>
	<path d="M 33.05009,201.21808 C 28.22499,204.57946 25.39768,204.18149 19.54324,204.83895 C 13.6888,205.49641 -2.1551399,205.25838 -2.1551399,205.25838 C -2.1551399,205.25838 0.13857014,205.21568 5.2224501,206.16257 C 10.30633,207.1095 20.67552,208.01489 26.51421,210.23725 C 32.3529,212.45961 34.48267,213.09385 38.03144,215.33781 C 43.08251,218.53169 46.78961,223.53475 51.61844,227.03486 C 51.61844,227.03486 51.85221,222.39116 49.90276,218.92244 C 47.95331,215.45372 42.71239,209.98745 41.17056,204.88384 C 39.62873,199.78024 38.89627,189.75185 38.89627,189.75185 C 38.89627,189.75185 37.87519,197.8567 33.05009,201.21808" id="path4400-2-8" style="opacity:0.42000001999999997;fill:url(#radialGradient18836);fill-opacity:1;stroke:none;filter:url(#filter4427-5-7)"/>
	<path d="M -12.3301,194.04012 C -12.509469,195.49606 -12.741991,196.94545 -13.02705,198.38443 C -13.167572,199.09379 -13.321952,199.80432 -13.586098,200.47749 C -13.850244,201.15066 -14.230288,201.78963 -14.76735,202.27388 C -15.238064,202.69831 -15.811742,202.98983 -16.38804,203.25363 C -18.636314,204.28279 -21.042444,204.96624 -23.496018,205.27262 C -22.516094,205.34452 -21.537458,205.43389 -20.56074,205.54082 C -19.945397,205.60822 -19.32867,205.6829 -18.729055,205.83668 C -18.129441,205.99045 -17.54433,206.22623 -17.04483,206.59186 C -16.497024,206.99285 -16.066836,207.54019 -15.74552,208.13822 C -15.10529,209.32981 -14.891174,210.70103 -14.7728,212.04853 C -14.621407,213.77189 -14.610359,215.50757 -14.7398,217.23272 C -14.623948,216.07843 -14.382053,214.93683 -14.0198,213.83475 C -13.366958,211.84861 -12.315643,209.98686 -10.90006,208.44833 C -10.338345,207.83783 -9.7196754,207.27797 -9.0412999,206.80043 C -6.963087,205.33749 -4.3232582,204.69493 -1.8051799,205.0391 C -4.3641523,205.15212 -6.9541423,204.34821 -8.9993699,202.80608 C -10.040981,202.02069 -10.94812,201.04321 -11.57913,199.90145 C -12.55492,198.13584 -12.829248,195.9947 -12.3301,194.04012" id="path4491-9" style="opacity:0.20000000000000001;fill:url(#radialGradient18838);fill-opacity:1;stroke:none;filter:url(#filter4538-7)"/>
	<path d="M -18.5,228.08093 C -19.729545,232.76027 -20.575193,237.54042 -21.02566,242.35758 C -21.662684,249.16974 -21.509341,256.03008 -21.875,262.86218 C -22.185288,268.65971 -22.866068,274.51805 -21.8591,280.23588 C -21.378927,282.96243 -20.516367,285.62135 -19.30454,288.11055 C -19.112047,287.16049 -18.970976,286.20001 -18.88215,285.23472 C -18.455541,280.59868 -19.236246,275.94783 -19.49996,271.29968 C -19.962206,263.15224 -18.834266,255.00978 -18.37496,246.86218 C -18.022359,240.60742 -18.064136,234.33045 -18.49996,228.08093 L -18.5,228.08093" id="path4542-7" style="opacity:0.11000001000000000;color:#000000;fill:#000000;fill-opacity:1;fill-rule:nonzero;stroke:none;stroke-width:2;marker:none;visibility:visible;display:inline;overflow:visible;filter:url(#filter4592-2);enable-background:accumulate"/>
	<path d="M 37.6875,157.86218 C 35.52533,159.83155 38.70109,162.78985 40.20716,166.26647 C 41.14342,168.42773 43.73393,171.47156 46.2396,170.98397 C 48.1244,170.6172 49.29387,167.90461 49.11548,165.99276 C 48.77132,162.30424 45.65879,161.4402 43.39828,160.17327 C 41.60689,159.16926 39.2057,156.47936 37.6875,157.86218 L 37.6875,157.86218" id="path4596-3" style="fill:#838384;fill-opacity:1;stroke:none;filter:url(#filter15185-2)"/>
	<path d="M 86.05618,328.13191 C 85.59947,329.6811 84.90402,331.17776 84.00656,332.5428 C 82.02606,335.55517 79.15207,337.8222 76.27976,339.91295 C 71.38087,343.47884 66.27704,346.7508 61.71658,350.80324 C 58.66107,353.51837 55.87546,356.56261 53.2938,359.76815 C 51.08591,362.50961 49.0099,365.38744 46.49291,367.82544 C 43.95327,370.28537 40.96242,372.2722 37.74104,373.35477 C 33.82308,374.67144 29.68309,374.60807 25.90871,373.61415 C 23.26396,372.91768 20.68506,371.70712 19.04655,369.51725 C 17.40175,367.31897 16.86885,364.36507 16.67853,361.46539 C 16.34202,356.33664 16.9382,351.09583 17.48193,345.8899 C 17.9336,341.5642 18.35018,337.23515 18.52048,332.91823 C 18.83032,325.06621 18.3238,317.28237 17.28862,309.64487 C 17.11526,308.36578 16.9266,307.07669 17.03206,305.75925 C 17.13725,304.44184 17.56746,303.07095 18.46821,302.05396 C 19.30023,301.11459 20.46101,300.5583 21.61892,300.28504 C 22.77684,300.01179 23.94875,299.99524 25.11162,299.96354 C 27.8518,299.88884 30.60809,299.72315 33.30683,299.96954 C 35.00965,300.12513 36.67947,300.44413 38.37996,300.61224 C 41.2176,300.89276 44.1613,300.7451 47.00735,299.88855 C 50.0714,298.9664 52.99366,297.23697 56.10679,296.76113 C 57.38411,296.56592 58.66579,296.58862 59.90783,296.76713 C 61.17529,296.94931 62.43623,297.30888 63.41018,298.10311 C 64.15037,298.70673 64.69212,299.53592 65.11601,300.41966 C 65.74745,301.73617 66.13522,303.18997 66.35716,304.68096 C 66.55379,306.00178 66.62355,307.36113 66.95505,308.63833 C 67.50041,310.73956 68.73594,312.5248 70.22241,313.97796 C 71.70887,315.43112 73.4474,316.58041 75.18299,317.71209 C 76.91206,318.83952 78.65093,319.95893 80.49771,320.88838 C 81.36446,321.32459 82.25522,321.71912 83.08383,322.22145 C 83.91243,322.72379 84.68454,323.34252 85.23476,324.15694 C 85.9811,325.26165 86.28045,326.70967 86.05644,328.13168 L 86.05646,328.13167" id="path14483-7-4" style="opacity:0.20000000000000001;fill:url(#linearGradient18840);fill-opacity:1;stroke:none;filter:url(#filter15115-3)" transform="matrix(1.0268828,0,0,1,-2.3134367,0)"/>
	<path clip-path="url(#clipPath14489-3)" d="M 516.00562,331.87559 C 515.33422,333.59464 514.3788,335.20238 513.18983,336.61385 C 510.56603,339.72867 506.92183,341.78424 503.29335,343.6337 C 497.10475,346.78807 490.69166,349.55547 484.87371,353.35024 C 480.97569,355.89273 477.37781,358.87695 474.01355,362.09262 C 471.13636,364.84274 468.40773,367.78007 465.18108,370.11033 C 461.92541,372.46155 458.16193,374.16459 454.19047,374.76053 C 449.36021,375.48534 444.36913,374.54764 439.89149,372.59637 C 436.75395,371.22909 433.7358,369.27347 431.92848,366.36706 C 430.11423,363.44952 429.70041,359.87893 429.69582,356.44331 C 429.68782,350.36665 430.81406,344.35327 431.8743,338.36982 C 432.75527,333.39805 433.59379,328.41499 434.13443,323.3948 C 435.1178,314.26362 435.11073,305.04202 434.45433,295.88153 C 434.3444,294.34737 434.21679,292.79833 434.44633,291.27741 C 434.67555,289.75649 435.30108,288.24071 436.46702,287.23755 C 437.54398,286.31095 438.98795,285.90157 440.40649,285.82305 C 441.82503,285.74455 443.24053,285.9696 444.64631,286.17502 C 447.95885,286.65907 451.2979,287.03992 454.53548,287.89158 C 456.57832,288.42896 458.56863,289.15083 460.60768,289.70239 C 464.01026,290.62278 467.57407,291.06383 471.07507,290.65431 C 474.84424,290.21342 478.50494,288.79753 482.2987,288.88957 C 483.85528,288.92737 485.4002,289.22128 486.88519,289.68942 C 488.40058,290.16714 489.89433,290.85124 491.008,291.98454 C 491.85439,292.84584 492.44379,293.92993 492.88672,295.05333 C 493.54654,296.72685 493.90164,298.51033 494.05375,300.30278 C 494.1885,301.89066 494.16718,303.49719 494.46808,305.06211 C 494.96311,307.63669 496.31554,309.98516 497.99656,311.99705 C 499.67758,314.00894 501.68638,315.71753 503.69297,317.40488 C 505.69205,319.08591 507.70357,320.75957 509.86005,322.23327 C 510.87215,322.92492 511.91647,323.57276 512.87741,324.33389 C 513.83835,325.09502 514.72207,325.98069 515.32284,327.04924 C 516.13776,328.49868 516.38661,330.25694 516.00591,331.87559 L 516.00593,331.87559" id="path14296-0" style="fill:url(#linearGradient18842);fill-opacity:1;stroke:none" transform="translate(-410,0)"/>
	<path clip-path="url(#clipPath14481-1)" d="M 512.89128,328.72435 C 512.27404,330.2718 511.40157,331.7171 510.31982,332.98415 C 507.91734,335.79815 504.59061,337.63859 501.28208,339.29514 C 495.62903,342.12557 489.77931,344.61275 484.46075,348.03053 C 480.90713,350.31414 477.61999,352.99617 474.54295,355.89012 C 471.91378,358.36285 469.41799,361.00612 466.47688,363.09821 C 463.49595,365.21863 460.05895,366.74501 456.43995,367.27884 C 452.03064,367.92925 447.47976,367.0857 443.38173,365.33322 C 440.52454,364.11137 437.7644,362.3632 436.10968,359.73293 C 434.46339,357.11605 434.07838,353.90291 434.07075,350.81127 C 434.05725,345.3466 435.08902,339.94051 436.0602,334.56281 C 436.86723,330.09406 437.63551,325.61461 438.12422,321.09994 C 439.01275,312.89169 438.97232,304.60238 438.41636,296.36492 C 438.32326,294.98475 438.21613,293.59111 438.42816,292.22415 C 438.6402,290.8572 439.20619,289.49678 440.25411,288.59379 C 441.23691,287.74692 442.55715,287.37584 443.85271,287.30785 C 445.14827,287.23985 446.44015,287.44966 447.72367,287.63855 C 450.74682,288.08345 453.79608,288.41773 456.75473,289.18178 C 458.62014,289.66351 460.43845,290.31343 462.30004,290.80973 C 465.40951,291.63871 468.66231,292.03459 471.85915,291.66553 C 475.30042,291.26825 478.6458,289.99405 482.10889,290.07899 C 483.52952,290.11379 484.93941,290.37936 486.29739,290.79807 C 487.67918,291.22412 489.04648,291.83253 490.06246,292.86144 C 490.82812,293.63684 491.35784,294.61496 491.77816,295.62035 C 492.4039,297.11709 492.81072,298.71777 492.84393,300.33971 C 492.87863,302.03345 492.50841,303.73462 492.73799,305.41309 C 492.92437,306.77573 493.50149,308.06111 494.23863,309.22221 C 494.97576,310.38331 495.87263,311.43311 496.76114,312.4829 C 498.4784,314.51187 500.20044,316.57964 502.35424,318.13747 C 504.80642,319.91111 507.71612,320.94892 510.24932,322.60479 C 511.00443,323.09838 511.73528,323.65694 512.26746,324.38537 C 513.16466,325.61343 513.40616,327.29328 512.89125,328.72435 L 512.89127,328.72435" id="path14296-3-7" style="fill:#cd8907;fill-opacity:1;stroke:none;filter:url(#filter14416-8)" transform="translate(-410,0)"/>
	<path clip-path="url(#clipPath14473-5)" d="M 508.79285,327.92545 C 508.19134,329.19 507.4107,330.36917 506.48151,331.41678 C 504.32816,333.84454 501.42052,335.51595 498.35802,336.58928 C 493.31636,338.35626 487.81237,338.59365 482.86331,340.60546 C 479.84716,341.83153 477.13268,343.67885 474.38417,345.42417 C 472.16243,346.83499 469.89171,348.19304 467.45211,349.18039 C 464.69663,350.29559 461.76643,350.92086 458.82629,351.35896 C 456.95547,351.63772 455.0637,351.84319 453.17473,351.746 C 451.28575,351.6488 449.39055,351.23865 447.72346,350.34508 C 446.45947,349.66758 445.3222,348.69218 444.6475,347.42669 C 443.89794,346.02079 443.76791,344.37066 443.78507,342.77752 C 443.83077,338.5316 444.81064,334.33172 444.78124,330.08566 C 444.75564,326.38952 443.96599,322.74071 443.73893,319.05147 C 443.30228,311.9569 444.94363,304.73825 443.49904,297.7786 C 443.26779,296.66447 442.95692,295.55174 442.97203,294.41397 C 442.98003,293.84508 443.07083,293.27296 443.28744,292.74688 C 443.50405,292.22079 443.85033,291.7418 444.31205,291.40937 C 444.70083,291.12945 445.16249,290.95913 445.63541,290.8826 C 446.10833,290.8061 446.59289,290.821 447.06707,290.8896 C 448.01543,291.02616 448.91895,291.37175 449.84253,291.62678 C 452.48446,292.3563 455.27507,292.3411 457.96001,292.89162 C 459.64528,293.23717 461.2768,293.80311 462.94437,294.22589 C 465.74465,294.93585 468.6645,295.23919 471.53649,294.92731 C 474.62499,294.59192 477.64363,293.55197 480.74938,293.62697 C 482.02243,293.65767 483.28679,293.87702 484.51417,294.21633 C 485.74188,294.55573 486.96955,295.03584 487.89838,295.90747 C 488.56768,296.53556 489.04973,297.33817 489.44052,298.16868 C 490.01082,299.3807 490.40778,300.69722 490.39848,302.03668 C 490.39348,302.73348 490.27949,303.42426 490.21176,304.11778 C 490.14406,304.8113 490.12396,305.52146 490.30316,306.19483 C 490.48325,306.87139 490.85731,307.48153 491.28585,308.03516 C 491.71439,308.5888 492.20056,309.09518 492.64404,309.63692 C 493.88599,311.15405 494.77365,312.92236 495.74128,314.62759 C 496.70892,316.33282 497.7936,318.02025 499.32164,319.24876 C 501.40134,320.9208 504.09962,321.58892 506.41806,322.91017 C 507.09683,323.29699 507.75482,323.75099 508.23205,324.36954 C 508.61436,324.86506 508.86967,325.45774 508.96714,326.07596 C 509.06464,326.69418 509.00404,327.33667 508.79274,327.92578 L 508.79283,327.92578" id="path14296-3-1-9" style="fill:#f5c021;fill-opacity:1;stroke:none;filter:url(#filter14432-2)" transform="matrix(1.1429721,0,0,1.2323048,-478.99801,-77.126193)"/>
	<path d="M 27.30927,290.64972 C 30.58538,289.76268 33.37547,292.24692 35.75155,294.12205 C 37.28682,295.43133 39.50503,295.10197 41.3882,295.16418 C 44.50889,295.05097 47.61355,295.68699 50.73528,295.29995 C 56.8799,294.78063 62.90375,293.27029 69.07764,293.01011 C 72.02712,292.82432 75.33756,292.65286 77.88577,294.37528 C 78.91876,295.09078 80.43279,298.11667 81.45224,296.98017 C 81.03193,293.80196 78.67476,290.72428 75.51318,289.87793 C 73.03826,289.48851 70.52333,290.16927 68.02371,289.94903 C 60.60077,289.77197 53.23027,288.39363 45.78975,288.78888 C 40.61331,288.83368 35.44318,288.59387 30.27429,288.39226 C 28.24372,287.97737 27.52755,289.78127 26.42539,290.47311" id="path16493" style="fill:url(#linearGradient18844);fill-opacity:1;stroke:none;filter:url(#filter17044)"/>
	<path d="M 361.75,209.34296 C 361.752,207.80983 354.18526,199.28656 351.9604,200.85653 C 349.73554,202.42651 351.46868,204.64073 351.66436,206.35442 C 351.86004,208.0681 350.71899,212.96375 351.90285,213.61376 C 353.08671,214.26377 355.26892,211.09396 357.20396,209.33679 C 358.76214,207.92185 361.74794,210.87608 361.75,209.34279 L 361.75,209.34296" id="path15189-4" style="opacity:0.75000000000000000;fill:#7c7c7c;fill-opacity:1;stroke:none;filter:url(#filter14706-3)" transform="matrix(-0.09596121,-0.95700905,-0.77476232,0.11853409,259.90204,542.60667)"/>
	<path d="M 351.9604,200.85653 C 350.50878,201.24536 350.73032,204.8507 351.66436,206.35442 C 352.45322,207.62441 354.73671,208.62551 355.42289,207.35946 C 356.53701,205.30384 353.95097,200.32333 351.9604,200.85653 L 351.9604,200.85653" id="path28767-9-3" style="opacity:0.25000000000000000;fill:#7c7c7c;fill-opacity:1;stroke:none;filter:url(#filter15211-9)" transform="matrix(-0.06991927,0.95700905,-0.56450744,-0.11853409,97.56774,-131.0171)"/>
	<path d="M 71.48366,295.64014 C 70.921085,294.53813 69.896739,293.71429 68.754935,293.23763 C 67.613132,292.76096 66.358007,292.60873 65.120738,292.61827 C 62.646201,292.63737 60.186151,293.28184 57.72075,293.06855 C 55.638153,292.88837 53.662005,292.10554 51.63093,291.61116 C 49.533668,291.10067 47.309051,290.90147 45.22628,291.46819 C 43.000328,292.07387 41.036856,293.56181 39.80713,295.5136 C 38.722868,297.23451 38.208037,299.26634 38.04602,301.29388 C 37.884004,303.32142 38.05899,305.35966 38.26417,307.38329 C 38.412568,308.84692 38.57771,310.31408 38.931815,311.74195 C 39.28592,313.16983 39.836034,314.56477 40.69789,315.75701 C 41.938603,317.47333 43.781264,318.69651 45.76727,319.43198 C 49.009102,320.63251 52.701066,320.56795 55.89894,319.2548 C 61.557791,316.79778 66.348156,312.3909 69.26773,306.95623 C 70.313124,305.01027 71.125131,302.93691 71.64962,300.7911 C 71.858073,299.93827 72.021771,299.06874 72.029395,298.19083 C 72.036995,297.31293 71.882839,296.42208 71.48366,295.64014" id="path29714-8-2" style="opacity:0.34999999999999998;fill:url(#radialGradient18846);fill-opacity:1;stroke:none;filter:url(#filter14897-2)"/>
	<path d="M 71.483661,295.64014 C 70.921086,294.53813 69.89674,293.71429 68.754936,293.23763 C 67.613133,292.76096 66.358008,292.60873 65.120739,292.61827 C 62.646202,292.63737 60.186152,293.28184 57.720751,293.06855 C 55.638154,292.88837 53.662006,292.10554 51.630931,291.61116 C 49.533669,291.10067 47.309052,290.90147 45.226281,291.46819 C 43.000329,292.07387 41.036857,293.56181 39.807131,295.5136 C 38.722869,297.23451 38.208038,299.26634 38.046021,301.29388 C 37.884005,303.32142 38.058991,305.35966 38.264171,307.38329 C 38.412569,308.84692 38.577711,310.31408 38.931816,311.74195 C 39.285921,313.16983 39.836035,314.56477 40.697891,315.75701 C 41.938604,317.47333 43.781265,318.69651 45.767271,319.43198 C 49.009103,320.63251 52.701067,320.56795 55.898941,319.2548 C 61.557792,316.79778 66.348157,312.3909 69.267731,306.95623 C 70.313125,305.01027 71.125132,302.93691 71.649621,300.7911 C 71.858074,299.93827 72.021772,299.06874 72.029396,298.19083 C 72.036996,297.31293 71.88284,296.42208 71.483661,295.64014" id="path29714-8-3-0" style="opacity:0.34999999999999998;fill:url(#radialGradient18848);fill-opacity:1;stroke:none;filter:url(#filter14951-8)" transform="matrix(1,0,0,0.72292525,0,80.758477)"/>
	<path d="M 76.1875,285.32775 C 75.782342,284.22406 75.069055,283.24619 74.196795,282.45788 C 73.324536,281.66956 72.296313,281.06559 71.21402,280.60633 C 69.049433,279.68781 66.693495,279.34484 64.3825,278.91077 C 62.203313,278.50146 60.04071,278.00446 57.85468,277.63343 C 55.58332,277.24792 53.236783,277.0013 50.98938,277.50813 C 49.023553,277.95146 47.204881,278.96692 45.717656,280.32677 C 44.230431,281.68661 43.068547,283.38317 42.23267,285.21684 C 40.760494,288.44636 40.298158,292.08187 40.57873,295.62 C 40.787545,298.25325 41.454053,300.96594 43.1875,302.95912 C 44.588154,304.56964 46.574829,305.57438 48.62148,306.18004 C 52.146497,307.2232 55.988112,307.16826 59.48186,306.02474 C 65.248754,304.09361 70.357541,300.25087 73.8122,295.24571 C 74.950809,293.59608 75.924374,291.79762 76.3654,289.84231 C 76.701373,288.35276 76.713708,286.76119 76.1875,285.32775" id="path29714-5-4" style="fill:#020204;fill-opacity:1;stroke:none"/>
	<path clip-path="url(#clipPath14822-9)" d="M 362.21875,276.45593 C 361.66942,276.48653 361.13731,276.54683 360.59375,276.64343 C 357.12424,277.26029 353.9467,279.452 352.15625,282.48718 C 350.89229,284.62985 350.3164,287.16352 350.5,289.64343 C 350.5732,287.9018 351.02946,286.19658 351.875,284.67468 C 353.30942,282.09283 355.90738,280.14489 358.8125,279.61218 C 360.60226,279.28399 362.44432,279.48123 364.25,279.70588 C 365.98256,279.92148 367.73115,280.14875 369.4375,280.51838 C 372.07851,281.09047 374.69178,281.96973 376.90625,283.51838 C 377.42271,283.87956 377.9058,284.28695 378.3125,284.76838 C 378.71919,285.24981 379.03438,285.8063 379.15625,286.42463 C 379.33449,287.32891 379.07685,288.27758 378.625,289.08088 C 378.17311,289.88418 377.56009,290.58753 376.90625,291.23713 C 376.37702,291.76293 375.81143,292.2713 375.25,292.76838 C 377.809,292.27267 380.40199,291.57072 382.53125,290.08088 C 383.431,289.45133 384.24648,288.69624 384.78125,287.73713 C 385.31602,286.77801 385.5437,285.61593 385.28125,284.54963 C 385.10411,283.82992 384.70988,283.16723 384.21875,282.61213 C 383.72761,282.05702 383.13825,281.59996 382.53125,281.17463 C 379.85248,279.29762 376.71632,278.09609 373.46875,277.70588 C 371.38726,277.32302 369.28753,276.99991 367.1875,276.73713 C 365.54406,276.53149 363.86673,276.364 362.21875,276.45588 L 362.21875,276.45593" id="path29714-3-9-9" style="fill:url(#radialGradient18850);fill-opacity:1;stroke:none;filter:url(#filter14812-5)" transform="translate(-310,0)"/>
	<path clip-path="url(#clipPath14822-2-4)" d="M 362.21875,276.45593 C 361.66942,276.48653 361.13731,276.54683 360.59375,276.64343 C 357.12424,277.26029 353.9467,279.452 352.15625,282.48718 C 350.89229,284.62985 350.3164,287.16352 350.5,289.64343 C 350.5732,287.9018 351.02946,286.19658 351.875,284.67468 C 353.30942,282.09283 355.90738,280.14489 358.8125,279.61218 C 360.60226,279.28399 362.44432,279.48123 364.25,279.70588 C 365.98256,279.92148 367.73115,280.14875 369.4375,280.51838 C 372.07851,281.09047 374.69178,281.96973 376.90625,283.51838 C 377.42271,283.87956 377.9058,284.28695 378.3125,284.76838 C 378.71919,285.24981 379.03438,285.8063 379.15625,286.42463 C 379.33449,287.32891 379.07685,288.27758 378.625,289.08088 C 378.17311,289.88418 377.56009,290.58753 376.90625,291.23713 C 376.37702,291.76293 375.81143,292.2713 375.25,292.76838 C 377.809,292.27267 380.40199,291.57072 382.53125,290.08088 C 383.431,289.45133 384.24648,288.69624 384.78125,287.73713 C 385.31602,286.77801 385.5437,285.61593 385.28125,284.54963 C 385.10411,283.82992 384.70988,283.16723 384.21875,282.61213 C 383.72761,282.05702 383.13825,281.59996 382.53125,281.17463 C 379.85248,279.29762 376.71632,278.09609 373.46875,277.70588 C 371.38726,277.32302 369.28753,276.99991 367.1875,276.73713 C 365.54406,276.53149 363.86673,276.364 362.21875,276.45588 L 362.21875,276.45593" id="path29714-3-9-3-8" style="fill:url(#linearGradient18852);fill-opacity:1;stroke:none;filter:url(#filter14812-0-9)" transform="translate(-310,3.3554978e-6)"/>
	<path d="M -61.50184,184.42468 C -64.285402,187.89851 -67.063556,191.37667 -69.83629,194.85914 C -72.693206,198.44735 -75.544396,202.04017 -78.42358,205.61053 C -81.956265,209.99127 -85.572724,214.40475 -87.8727,219.54098 C -89.848949,223.95427 -90.783474,228.74823 -92.13768,233.3903 C -93.675581,238.66206 -95.763769,243.7606 -98.10839,248.72642 C -100.27335,253.31173 -102.65821,257.78933 -105.0473,262.26195 C -106.7855,265.51604 -108.55244,268.84299 -109.15512,272.48266 C -109.6314,275.35898 -109.35362,278.32689 -108.62137,281.14892 C -107.88912,283.97094 -106.71172,286.65952 -105.38361,289.25493 C -99.716361,300.32997 -91.213578,309.87661 -81.14185,317.17965 C -76.571224,320.49383 -71.675159,323.36074 -66.5394,325.7056 C -63.756932,326.97601 -60.825848,328.10996 -57.767541,328.16304 C -56.238387,328.18954 -54.693437,327.9376 -53.293201,327.32249 C -51.892965,326.70739 -50.642524,325.71876 -49.81066,324.4354 C -48.787882,322.8575 -48.440743,320.89711 -48.646046,319.02797 C -48.851349,317.15883 -49.580889,315.37503 -50.55929,313.76924 C -52.949261,309.84673 -56.724486,307.00869 -60.35571,304.19581 C -68.196259,298.12223 -75.780364,291.71542 -83.03783,284.95585 C -85.086947,283.04731 -87.136237,281.07826 -88.56802,278.67173 C -89.962315,276.32821 -90.715622,273.65797 -91.22585,270.9792 C -92.625569,263.63047 -92.266771,255.89634 -89.76627,248.84577 C -88.788048,246.08751 -87.495087,243.45376 -86.24812,240.80612 C -84.086794,236.21706 -82.040872,231.54048 -79.19879,227.33889 C -75.660812,222.10852 -70.931301,217.6784 -68.04732,212.06086 C -65.613091,207.31937 -64.627378,201.9885 -63.68547,196.74255 C -62.948537,192.63821 -62.220658,188.53224 -61.50184,184.42468" id="path14967-1-0" style="fill:#020204;fill-opacity:1;stroke:none"/>
	<path clip-path="url(#clipPath15031-3)" d="M 232.33049,224.26954 C 230.00923,226.40703 227.99742,228.88005 226.37711,231.58777 C 223.7091,236.04631 222.13806,241.05612 220.19902,245.87659 C 218.7554,249.46545 217.07383,253.06973 216.8724,256.93281 C 216.76894,258.91699 217.06296,260.89869 217.12911,262.88446 C 217.19531,264.87024 217.01155,266.93554 216.03944,268.66837 C 215.22606,270.11825 213.87354,271.25739 212.30646,271.81239 C 214.42193,272.51925 216.31099,273.88785 217.64178,275.67778 C 218.75629,277.1768 219.46937,278.93144 220.43787,280.52869 C 221.22503,281.82687 222.19122,283.02993 223.38072,283.97332 C 224.57022,284.91671 225.99213,285.59306 227.49798,285.78625 C 229.56421,286.05133 231.73372,285.3581 233.26339,283.944 C 231.33801,265.9083 233.10144,247.4868 238.41352,230.14392 C 238.74896,229.04877 239.10077,227.94564 239.18386,226.80329 C 239.26696,225.66094 239.0549,224.45537 238.35972,223.54509 C 237.98958,223.06042 237.49134,222.6745 236.92952,222.43729 C 236.3677,222.20009 235.74364,222.11217 235.13816,222.18493 C 234.53267,222.25763 233.9472,222.49093 233.45757,222.85447 C 232.96793,223.21802 232.5753,223.71098 232.33051,224.26954 L 232.33049,224.26954" id="path15007-0" style="opacity:0.94999999999999996;fill:#7c7c7c;fill-opacity:1;stroke:none;filter:url(#filter15053-7)" transform="translate(-310,0)"/>
	<path d="M 137.57703,281.0191 C 139.17632,280.35615 140.97523,280.23549 142.67777,280.54947 C 144.3803,280.86345 145.98918,281.59895 147.42119,282.57186 C 150.28521,284.51769 152.4094,287.3496 154.44382,290.15138 C 159.11571,296.58544 163.6125,303.15365 167.6887,309.98068 C 170.99505,315.51834 174.03222,321.23753 177.85285,326.43372 C 180.34683,329.82562 183.15945,332.97319 185.66585,336.35593 C 188.17224,339.73866 190.39379,343.41179 191.50516,347.47255 C 192.94927,352.74908 192.38979,358.56546 189.8785,363.42557 C 188.11187,366.84453 185.40204,369.77785 182.10608,371.76455 C 178.81013,373.75125 174.93544,374.77899 171.08973,374.63476 C 164.9756,374.40546 159.39029,371.34961 153.70611,369.0857 C 142.12514,364.4732 129.54633,363.0263 117.60945,359.43396 C 113.94086,358.32992 110.33363,357.02326 106.63957,356.00767 C 104.99832,355.55645 103.33091,355.15947 101.78082,354.45623 C 100.23074,353.75298 98.781272,352.70713 97.91911,351.23948 C 97.252719,350.10509 96.970724,348.76946 96.988923,347.45394 C 97.007123,346.13842 97.314812,344.83941 97.762738,343.60236 C 98.658589,341.12827 100.106,338.88862 101.0829,336.4454 C 102.67801,332.45605 102.96459,328.05701 102.74947,323.76598 C 102.53436,319.47495 101.83869,315.2212 101.54493,310.93483 C 101.41375,309.02077 101.36427,307.08227 101.72972,305.19885 C 102.09517,303.31542 102.90549,301.47426 104.28743,300.14344 C 105.56149,298.91651 107.25235,298.18813 108.98386,297.82693 C 110.71537,297.46573 112.49919,297.44946 114.26753,297.48931 C 116.03586,297.52921 117.8082,297.62356 119.57104,297.47871 C 121.33388,297.33383 123.10451,296.93816 124.64015,296.06043 C 126.10011,295.22596 127.29448,293.98593 128.28389,292.62619 C 129.27329,291.26645 130.07298,289.78046 130.8928,288.31223 C 131.71263,286.844 132.56114,285.38072 133.63437,284.08612 C 134.70761,282.79152 136.0236,281.66308 137.57703,281.01914" id="path4635-1" style="fill:url(#linearGradient18854);fill-opacity:1;stroke:none"/>
	<path d="M 140.10966,283.77885 C 141.56481,283.19266 143.20389,283.12821 144.73238,283.47479 C 146.26087,283.82136 147.68195,284.56494 148.92074,285.52179 C 151.39832,287.4355 153.12057,290.13558 154.77493,292.7904 C 158.74502,299.22346 162.62633,305.72421 166.29103,312.35756 C 169.06793,317.3508 171.71573,322.45009 175.12852,327.03648 C 177.39231,330.07802 179.97587,332.86787 182.28639,335.87323 C 184.5969,338.87859 186.65765,342.15537 187.67919,345.8067 C 188.99545,350.51252 188.46184,355.71671 186.18378,360.03952 C 184.54623,363.14528 182.03175,365.78596 178.99769,367.55212 C 175.96363,369.31829 172.41845,370.20135 168.91114,370.04003 C 163.31283,369.78231 158.19985,366.9865 152.93025,365.08932 C 142.82718,361.4236 131.87681,360.93178 121.5141,358.06931 C 117.79931,357.06098 114.17749,355.71655 110.44455,354.77535 C 108.79293,354.35877 107.11152,354.01823 105.54238,353.35605 C 103.97324,352.69386 102.49557,351.66739 101.64486,350.19131 C 101.01204,349.09414 100.75925,347.80293 100.79835,346.5371 C 100.83745,345.27126 101.1575,344.02675 101.60827,342.84324 C 102.50982,340.47623 103.92852,338.33295 104.83739,335.9686 C 106.21609,332.39435 106.38733,328.46448 106.13136,324.64243 C 105.87539,320.82038 105.21026,317.03294 104.9781,313.20883 C 104.87436,311.49987 104.85877,309.76984 105.20444,308.09307 C 105.55008,306.4163 106.2805,304.78336 107.4993,303.58107 C 108.82019,302.27203 110.64046,301.55694 112.47657,301.2768 C 114.31268,300.99667 116.18258,301.11872 118.03136,301.2838 C 119.88013,301.44875 121.73639,301.65651 123.59249,301.54543 C 125.44858,301.43434 127.32819,300.98212 128.86135,299.93849 C 130.25872,298.99388 131.30719,297.61442 132.10574,296.14007 C 132.9043,294.66572 133.47334,293.08463 134.08218,291.52351 C 134.69103,289.96238 135.3489,288.40162 136.30398,287.01378 C 137.25907,285.62593 138.5401,284.40911 140.10966,283.77905" id="path13596-6" style="fill:#d99a03;fill-opacity:1;stroke:none;filter:url(#filter14148-8)"/>
	<path d="M 138.7532,281.23531 C 140.16227,280.52311 141.82382,280.37719 143.36962,280.6985 C 144.91541,281.0198 146.34785,281.78913 147.56534,282.79434 C 150.00032,284.80474 151.5456,287.66904 152.98473,290.47969 C 156.28967,296.93435 159.36813,303.52952 163.32264,309.60793 C 166.19139,314.01745 169.50229,318.12494 172.40419,322.51272 C 176.33976,328.46343 179.54001,335.00842 180.86058,342.01954 C 181.7488,346.73525 181.71957,351.82909 179.48814,356.07733 C 178.01945,358.87344 175.63812,361.16721 172.82475,362.60255 C 170.01138,364.03788 166.78155,364.61956 163.63586,364.33696 C 158.68163,363.89189 154.18216,361.41184 149.51838,359.68221 C 141.24369,356.61342 132.30029,355.87896 123.78403,353.56351 C 120.19207,352.58691 116.67404,351.3283 113.03313,350.55388 C 111.42697,350.21225 109.78952,349.96263 108.25638,349.37445 C 106.72325,348.78627 105.27015,347.80867 104.48673,346.36551 C 103.93534,345.34978 103.75017,344.16092 103.8324,343.00811 C 103.9146,341.85529 104.25324,340.73325 104.69702,339.6661 C 105.58457,337.53181 106.89789,335.57675 107.58737,333.37049 C 108.60058,330.12835 108.18409,326.61331 107.42377,323.30272 C 106.66346,319.99213 105.5671,316.74145 105.22929,313.36151 C 105.07883,311.85608 105.08248,310.32158 105.42065,308.84693 C 105.75883,307.37228 106.44752,305.95517 107.5292,304.89738 C 108.9224,303.53494 110.87292,302.85741 112.81235,302.66813 C 114.75179,302.47886 116.70452,302.73703 118.63262,303.01933 C 120.56072,303.3016 122.50086,303.60936 124.44742,303.51919 C 126.39398,303.42899 128.37591,302.90838 129.90058,301.69487 C 131.4084,300.49476 132.35635,298.70774 132.89997,296.85888 C 133.44359,295.01003 133.61994,293.07697 133.84264,291.16276 C 134.06534,289.24855 134.34308,287.31656 135.07235,285.53276 C 135.80163,283.74896 137.03329,282.10462 138.7532,281.23531" id="path4635-2-4" style="fill:#f5bd0c;fill-opacity:1;stroke:none;filter:url(#filter14140-3)" transform="matrix(1,0,0,0.98204782,0,3.9589725)"/>
	<path d="M 156.40717,295.96941 C 159.01339,300.68278 160.60297,306.09097 163.18842,310.84441 C 165.56652,315.21664 168.27288,319.7182 170.68842,323.75066 C 171.76387,325.546 174.27171,328.30526 176.80737,332.58797 C 179.10508,336.46878 181.42563,341.88512 182.72395,343.70377 C 181.97843,341.575 180.44469,335.85722 178.6152,331.78122 C 176.90565,327.97245 174.91544,325.79903 173.68842,323.75066 C 171.27289,319.7182 168.67151,316.09419 166.18842,312.25066 C 162.76321,306.94885 160.15284,301.01543 156.40717,295.96941 L 156.40717,295.96941" id="path4792-8" style="fill:url(#linearGradient18856);fill-opacity:1;stroke:none;filter:url(#filter14176-5)"/>
</svg>
