<?xml version="1.0" ?>
<svg baseProfile="full" height="600px" version="1.1" viewBox="3.0429975519 -12.2824920681 163.914004896 194.567880337" width="506px" xmlns="http://www.w3.org/2000/svg" xmlns:ev="http://www.w3.org/2001/xml-events" xmlns:xlink="http://www.w3.org/1999/xlink">
	<defs/>
	<path d="M 150.37,130.25 C 147.92,135.91 145.02,141.12 141.66,145.91 C 137.08,152.44 133.33,156.96 130.44,159.47 C 125.96,163.59 121.16,165.7 116.02,165.82 C 112.33,165.82 107.88,164.77 102.7,162.64 C 97.503,160.52 92.727,159.47 88.36,159.47 C 83.78,159.47 78.868,160.52 73.614,162.64 C 68.352,164.77 64.113,165.88 60.872,165.99 C 55.943,166.2 51.03,164.03 46.126,159.47 C 42.996,156.74 39.081,152.06 34.391,145.43 C 29.359,138.35 25.222,130.14 21.981,120.78 C 18.51,110.67 16.77,100.88 16.77,91.402 C 16.77,80.545 19.116,71.181 23.815,63.334 C 27.508,57.031 32.421,52.059 38.57,48.409 C 44.719,44.759 51.363,42.899 58.518,42.78 C 62.433,42.78 67.567,43.991 73.947,46.371 C 80.309,48.759 84.394,49.97 86.185,49.97 C 87.524,49.97 92.062,48.554 99.755,45.731 C 107.03,43.113 113.17,42.029 118.2,42.456 C 131.83,43.556 142.07,48.929 148.88,58.609 C 136.69,65.995 130.66,76.34 130.78,89.611 C 130.89,99.948 134.64,108.55 142.01,115.38 C 145.35,118.55 149.08,121.0 153.23,122.74 C 152.33,125.35 151.38,127.85 150.37,130.25 L 150.37,130.25 M 119.11,7.24 C 119.11,15.3421 116.15,22.907 110.25,29.909 C 103.13,38.233 94.518,43.043 85.179,42.284 C 85.06,41.312 84.991,40.289 84.991,39.214 C 84.991,31.436 88.377,23.112 94.39,16.306 C 97.392,12.86 101.21,9.9947 105.84,7.709 C 110.46,5.4574 114.83,4.2122 118.94,3.999 C 119.06,5.0821 119.11,6.1653 119.11,7.2399 L 119.11,7.24"/>
</svg>
